<svg id="svg" version="1.1" xmlns="http://www.w3.org/2000/svg" xmlns:xlink="http://www.w3.org/1999/xlink" width="400" height="266.1818181818182" viewBox="0, 0, 400,266.1818181818182"><g id="svgg"><path id="path0" d="M0.000 44.474 L 0.000 88.948 200.000 88.948 L 400.000 88.948 400.000 44.474 L 400.000 0.000 200.000 0.000 L 0.000 0.000 0.000 44.474 M99.933 177.563 C 154.970 177.600,245.030 177.600,300.067 177.563 C 355.103 177.526,310.073 177.496,200.000 177.496 C 89.927 177.496,44.897 177.526,99.933 177.563 " stroke="none" fill="#fc9c34" fill-rule="evenodd"></path><path id="path1" d="M0.000 133.156 L 0.000 177.364 200.000 177.364 L 400.000 177.364 400.000 133.156 L 400.000 88.948 200.000 88.948 L 0.000 88.948 0.000 133.156 M202.530 97.463 C 203.995 97.596,205.613 97.880,206.125 98.094 C 206.638 98.308,207.776 98.567,208.655 98.669 C 209.534 98.772,210.852 99.132,211.585 99.470 C 212.317 99.808,213.367 100.169,213.918 100.272 C 214.469 100.375,214.989 100.572,215.074 100.710 C 215.159 100.848,215.861 101.240,216.635 101.582 C 217.408 101.924,218.124 102.339,218.226 102.504 C 218.328 102.669,218.793 102.983,219.259 103.202 C 220.375 103.725,221.669 104.664,223.302 106.135 C 224.035 106.794,224.820 107.481,225.048 107.662 C 225.710 108.184,228.578 111.617,229.328 112.783 C 229.705 113.369,230.391 114.438,230.852 115.159 C 231.314 115.880,231.691 116.683,231.691 116.943 C 231.691 117.204,231.853 117.513,232.052 117.630 C 232.519 117.906,233.023 118.873,233.023 119.494 C 233.023 119.762,233.282 120.459,233.599 121.043 C 233.916 121.626,234.319 122.943,234.496 123.968 C 234.672 124.993,235.034 126.611,235.300 127.563 C 235.881 129.644,235.962 136.534,235.429 138.482 C 235.248 139.141,234.924 140.579,234.709 141.678 C 234.493 142.776,234.039 144.274,233.699 145.007 C 233.359 145.739,233.006 146.771,232.913 147.300 C 232.821 147.829,232.515 148.471,232.234 148.726 C 231.952 148.981,231.644 149.542,231.549 149.973 C 231.455 150.404,231.088 151.068,230.735 151.449 C 230.382 151.830,230.093 152.247,230.093 152.376 C 230.093 152.666,228.565 154.895,227.750 155.792 C 224.707 159.147,222.484 161.150,220.237 162.562 C 219.433 163.068,218.366 163.789,217.867 164.164 C 217.367 164.540,216.803 164.847,216.613 164.847 C 216.424 164.847,215.827 165.146,215.288 165.513 C 214.748 165.879,214.049 166.178,213.734 166.178 C 213.419 166.178,212.687 166.425,212.107 166.727 C 211.527 167.029,210.333 167.392,209.454 167.534 C 208.575 167.676,207.017 168.055,205.992 168.377 C 203.520 169.153,196.393 169.210,194.329 168.471 C 193.627 168.219,192.123 167.850,190.986 167.650 C 189.849 167.450,188.506 167.051,188.001 166.762 C 187.497 166.473,186.651 166.162,186.122 166.070 C 185.593 165.977,184.945 165.664,184.682 165.374 C 184.420 165.084,184.002 164.847,183.753 164.847 C 183.505 164.847,182.894 164.550,182.396 164.188 C 181.899 163.825,181.219 163.408,180.887 163.260 C 180.065 162.895,177.683 161.118,176.421 159.927 C 175.851 159.390,175.250 158.869,175.085 158.770 C 174.331 158.315,169.907 152.745,169.907 152.250 C 169.907 152.117,169.607 151.652,169.241 151.216 C 168.875 150.781,168.575 150.201,168.575 149.927 C 168.575 149.653,168.278 149.108,167.915 148.716 C 167.553 148.325,167.178 147.570,167.084 147.038 C 166.990 146.507,166.679 145.684,166.393 145.210 C 166.107 144.736,165.759 143.537,165.620 142.547 C 165.481 141.556,165.160 140.206,164.907 139.547 C 164.235 137.796,164.236 128.839,164.909 126.897 C 165.163 126.165,165.485 124.744,165.625 123.741 C 165.765 122.737,166.058 121.718,166.275 121.477 C 166.493 121.236,166.819 120.439,167.000 119.707 C 167.180 118.975,167.609 118.037,167.952 117.623 C 168.295 117.209,168.575 116.649,168.575 116.378 C 168.575 116.108,168.875 115.530,169.241 115.095 C 169.607 114.660,169.907 114.230,169.907 114.140 C 169.907 112.819,176.746 105.732,179.893 103.791 C 180.626 103.340,181.465 102.771,181.758 102.527 C 182.051 102.283,182.710 101.922,183.222 101.726 C 183.735 101.529,184.436 101.153,184.781 100.890 C 185.125 100.628,185.844 100.336,186.379 100.241 C 186.913 100.146,187.738 99.834,188.212 99.549 C 188.686 99.263,189.885 98.918,190.875 98.783 C 191.866 98.647,193.206 98.339,193.854 98.097 C 194.502 97.855,196.000 97.572,197.183 97.469 C 198.366 97.365,199.454 97.267,199.601 97.251 C 199.747 97.235,201.065 97.330,202.530 97.463 M197.787 102.906 C 196.868 103.758,195.698 103.996,194.784 103.518 C 193.275 102.727,190.036 103.689,189.445 105.104 C 188.983 106.211,188.519 106.421,187.486 105.993 C 186.013 105.383,184.229 106.298,182.643 108.478 C 181.415 110.167,181.250 110.298,180.532 110.154 C 179.696 109.987,179.374 110.180,177.651 111.883 C 176.799 112.725,176.705 112.938,176.914 113.566 C 177.208 114.447,176.517 115.297,174.851 116.103 C 173.388 116.812,171.941 119.797,172.670 120.603 C 173.365 121.370,173.179 121.889,171.971 122.552 C 170.498 123.361,169.529 126.445,170.264 127.986 C 170.742 128.990,170.590 129.810,169.731 130.846 C 168.886 131.867,168.824 134.680,169.630 135.410 C 170.509 136.205,170.806 137.515,170.322 138.453 C 169.982 139.109,169.958 139.511,170.187 140.666 C 170.608 142.787,170.852 143.204,172.027 143.803 C 173.195 144.399,173.407 145.063,172.666 145.805 C 172.261 146.209,172.270 146.333,172.778 147.488 C 173.080 148.174,173.392 148.942,173.470 149.195 C 173.549 149.447,174.142 149.903,174.789 150.207 C 176.548 151.034,177.215 151.845,176.902 152.777 C 176.527 153.896,179.104 156.373,180.529 156.264 C 181.414 156.196,181.533 156.289,182.546 157.839 C 183.933 159.962,185.773 160.884,187.491 160.317 C 188.585 159.956,189.348 160.229,189.348 160.982 C 189.348 162.488,193.151 163.775,194.911 162.864 C 195.824 162.393,197.096 162.716,197.836 163.607 C 198.110 163.938,198.651 164.048,200.000 164.048 C 201.349 164.048,201.890 163.938,202.164 163.607 C 202.905 162.714,204.176 162.393,205.093 162.867 C 206.772 163.735,210.154 162.761,210.648 161.266 C 211.012 160.161,211.767 159.850,212.661 160.435 C 213.426 160.937,216.143 160.015,216.644 159.084 C 217.961 156.636,219.034 155.725,219.931 156.293 C 220.163 156.440,220.503 156.322,220.904 155.956 C 223.413 153.664,223.486 153.564,223.209 152.834 C 222.887 151.987,223.180 151.596,225.034 150.393 C 227.011 149.112,228.069 146.908,227.318 145.636 C 226.767 144.704,227.012 144.256,228.389 143.681 C 229.674 143.144,230.527 139.811,229.756 138.339 C 229.286 137.441,229.579 136.208,230.425 135.529 C 231.286 134.838,231.180 131.844,230.256 130.746 C 229.507 129.856,229.371 128.804,229.864 127.721 C 230.576 126.159,229.471 123.128,227.963 122.503 C 226.979 122.096,226.793 121.564,227.322 120.668 C 228.021 119.485,226.869 117.021,225.179 116.085 C 223.253 115.018,222.823 114.492,223.157 113.613 C 223.566 112.538,221.052 110.120,219.526 110.120 C 218.590 110.120,218.449 110.009,217.450 108.484 C 216.187 106.557,213.612 105.129,212.762 105.885 C 211.977 106.582,211.236 106.336,210.647 105.182 C 210.024 103.961,209.541 103.691,207.418 103.375 C 206.291 103.208,205.736 103.245,205.204 103.524 C 204.295 104.000,203.176 103.759,202.384 102.916 C 201.494 101.968,198.805 101.963,197.787 102.906 M200.957 117.044 C 201.116 125.739,201.120 125.766,202.251 126.305 C 203.049 126.686,203.168 126.688,203.305 126.330 C 203.474 125.889,203.046 124.900,202.686 124.900 C 201.672 124.900,201.669 120.329,202.682 118.959 C 202.990 118.542,203.341 117.521,203.461 116.691 C 203.735 114.807,203.934 114.299,204.521 113.985 C 204.865 113.801,205.022 113.277,205.127 111.970 C 205.281 110.057,205.633 109.387,206.192 109.948 C 206.731 110.489,206.554 113.155,205.897 114.377 C 205.523 115.072,205.326 115.915,205.326 116.820 C 205.326 118.376,204.811 120.905,204.494 120.905 C 204.177 120.905,203.913 122.674,204.111 123.465 C 204.350 124.416,204.609 124.066,204.783 122.559 C 204.894 121.590,205.064 121.245,205.528 121.041 C 205.859 120.896,206.203 120.536,206.291 120.242 C 206.380 119.948,206.665 119.467,206.925 119.174 C 207.184 118.881,207.652 118.132,207.965 117.510 C 208.277 116.887,208.628 116.378,208.744 116.378 C 208.861 116.378,209.162 115.946,209.413 115.419 C 209.665 114.891,210.107 114.398,210.395 114.323 C 210.724 114.236,210.919 113.958,210.919 113.573 C 210.919 112.610,211.199 112.117,211.746 112.117 C 212.465 112.117,212.443 113.590,211.718 114.043 C 211.366 114.263,211.185 114.664,211.185 115.223 C 211.185 115.739,210.924 116.381,210.519 116.862 C 210.153 117.297,209.854 117.897,209.854 118.194 C 209.854 118.491,209.547 119.098,209.173 119.543 C 208.798 119.988,208.422 120.785,208.336 121.313 C 208.241 121.896,207.944 122.429,207.580 122.667 C 206.915 123.103,206.530 124.634,207.085 124.634 C 207.270 124.634,207.491 124.412,207.577 124.142 C 207.663 123.871,208.240 123.251,208.860 122.764 C 210.151 121.749,210.900 121.070,212.892 119.108 C 213.673 118.339,214.433 117.710,214.582 117.710 C 214.731 117.710,215.048 117.410,215.288 117.044 C 215.528 116.678,215.933 116.378,216.188 116.378 C 216.443 116.378,216.770 116.109,216.914 115.779 C 217.059 115.449,217.357 115.180,217.577 115.180 C 218.193 115.180,218.049 115.947,217.377 116.242 C 217.047 116.386,216.778 116.733,216.778 117.012 C 216.778 117.292,216.532 117.773,216.231 118.081 C 214.079 120.287,211.738 122.871,210.715 124.168 C 209.989 125.089,209.303 125.699,208.993 125.699 C 208.710 125.699,208.521 125.828,208.573 125.985 C 208.625 126.143,208.755 126.263,208.862 126.252 C 208.968 126.241,209.365 126.232,209.745 126.232 C 210.204 126.232,210.481 126.059,210.570 125.718 C 210.663 125.365,211.033 125.149,211.753 125.027 C 212.330 124.930,213.127 124.580,213.525 124.250 C 213.922 123.920,214.599 123.564,215.029 123.459 C 215.458 123.354,216.157 122.976,216.580 122.619 C 217.004 122.263,217.650 121.971,218.015 121.971 C 218.381 121.971,218.859 121.791,219.079 121.572 C 220.020 120.630,221.845 120.866,221.048 121.826 C 220.860 122.052,220.391 122.237,220.004 122.237 C 219.530 122.237,219.215 122.432,219.038 122.836 C 218.893 123.166,218.415 123.615,217.976 123.835 C 217.536 124.055,216.907 124.504,216.578 124.834 C 216.248 125.163,215.808 125.433,215.600 125.433 C 215.391 125.433,214.882 125.716,214.468 126.062 C 214.054 126.408,213.439 126.778,213.101 126.884 C 212.763 126.990,212.376 127.366,212.242 127.719 C 212.060 128.198,211.797 128.362,211.213 128.362 C 210.272 128.362,209.587 128.598,209.587 128.923 C 209.587 129.309,211.912 129.195,212.318 128.789 C 212.729 128.378,215.803 127.830,217.694 127.830 C 218.362 127.830,218.908 127.729,218.908 127.606 C 218.908 126.826,222.389 126.461,223.318 127.144 C 224.015 127.655,222.940 128.096,220.995 128.096 C 219.866 128.096,219.543 128.215,218.948 128.852 C 218.419 129.419,217.892 129.654,216.840 129.793 C 216.069 129.896,214.898 130.266,214.239 130.617 C 211.948 131.835,208.864 131.693,208.347 130.346 C 208.156 129.850,206.658 129.828,206.658 130.321 C 206.658 131.925,209.410 132.353,219.761 132.356 C 222.062 132.357,224.419 132.648,225.566 133.073 C 226.819 133.537,222.616 134.001,216.112 134.115 C 207.674 134.264,207.648 134.267,206.963 135.349 C 206.062 136.773,207.214 137.194,208.429 135.885 C 209.369 134.872,212.616 134.821,214.264 135.794 C 214.839 136.133,216.030 136.512,216.909 136.635 C 218.110 136.804,218.641 137.022,219.041 137.508 C 219.477 138.038,219.878 138.176,221.246 138.270 C 223.430 138.419,224.231 139.065,222.814 139.533 C 221.670 139.910,220.098 139.679,219.119 138.990 C 218.600 138.625,217.941 138.482,216.773 138.482 C 214.982 138.482,212.751 138.018,212.467 137.586 C 212.233 137.229,209.763 137.198,209.587 137.550 C 209.514 137.696,209.814 137.849,210.253 137.889 C 211.735 138.025,212.186 138.208,212.323 138.730 C 212.397 139.016,212.891 139.430,213.420 139.651 C 213.948 139.872,214.381 140.167,214.381 140.307 C 214.381 140.446,214.749 140.689,215.200 140.846 C 215.650 141.003,216.354 141.404,216.764 141.737 C 217.174 142.071,217.890 142.551,218.354 142.804 C 219.083 143.202,219.159 143.339,218.911 143.803 C 218.495 144.581,217.179 144.514,216.401 143.675 C 216.061 143.307,215.487 143.009,215.119 143.009 C 214.753 143.009,214.002 142.650,213.449 142.210 C 212.855 141.738,212.128 141.411,211.673 141.411 C 211.182 141.411,210.840 141.242,210.730 140.945 C 210.495 140.309,210.118 140.089,209.254 140.084 C 208.358 140.079,208.287 140.543,209.152 140.760 C 209.498 140.847,210.127 141.396,210.550 141.979 C 210.972 142.562,211.947 143.676,212.716 144.455 C 213.485 145.233,214.115 145.957,214.115 146.064 C 214.115 146.170,214.444 146.596,214.847 147.009 C 216.568 148.775,216.778 149.043,216.778 149.477 C 216.778 149.728,216.943 149.933,217.144 149.933 C 217.768 149.933,218.251 150.698,217.866 151.077 C 217.610 151.329,217.433 151.269,217.049 150.799 C 216.780 150.469,216.460 150.200,216.338 150.200 C 216.217 150.200,215.817 149.909,215.449 149.554 C 214.115 148.265,213.409 147.659,212.704 147.197 C 212.308 146.938,211.984 146.548,211.984 146.332 C 211.984 146.116,211.868 145.939,211.727 145.939 C 211.471 145.939,209.906 144.632,209.094 143.742 C 208.861 143.485,208.511 143.276,208.316 143.276 C 208.121 143.276,207.836 142.916,207.683 142.477 C 207.326 141.452,206.924 141.449,206.924 142.471 C 206.924 143.011,207.125 143.395,207.557 143.678 C 207.973 143.950,208.248 144.453,208.358 145.138 C 208.451 145.724,208.817 146.476,209.189 146.848 C 209.567 147.226,209.854 147.820,209.854 148.226 C 209.854 148.646,210.128 149.195,210.519 149.557 C 210.949 149.955,211.185 150.462,211.185 150.986 C 211.185 151.443,211.418 152.031,211.718 152.330 C 212.301 152.914,212.428 154.053,211.944 154.353 C 211.525 154.611,210.919 153.719,210.919 152.843 C 210.919 152.361,210.752 152.082,210.409 151.993 C 209.895 151.858,208.809 150.408,207.893 148.631 C 207.620 148.103,207.239 147.579,207.047 147.468 C 206.855 147.357,206.560 146.848,206.391 146.336 C 206.183 145.707,205.920 145.406,205.577 145.406 C 205.062 145.406,204.876 144.965,204.733 143.409 C 204.693 142.969,204.541 142.610,204.394 142.610 C 203.880 142.610,203.968 144.312,204.548 145.584 C 204.938 146.440,205.194 147.692,205.320 149.356 C 205.424 150.726,205.638 151.928,205.797 152.026 C 206.389 152.391,206.755 154.685,206.407 155.847 C 205.924 157.457,205.257 156.669,205.107 154.310 C 205.031 153.123,204.873 152.508,204.618 152.410 C 204.056 152.195,203.462 150.881,203.462 149.853 C 203.462 149.355,203.143 148.360,202.753 147.643 C 201.678 145.666,201.674 142.518,202.745 141.524 C 204.021 140.338,203.234 139.273,201.864 140.333 L 201.198 140.848 201.012 148.520 C 200.841 155.602,200.424 159.643,199.947 158.843 C 199.535 158.151,199.211 154.196,199.056 147.959 C 198.865 140.294,198.899 140.537,197.975 140.116 C 196.627 139.501,196.287 140.513,197.466 141.631 C 198.642 142.746,198.565 145.811,197.316 147.587 C 197.039 147.980,196.732 148.990,196.633 149.830 C 196.496 150.996,196.275 151.545,195.697 152.150 C 195.081 152.794,194.940 153.179,194.940 154.217 C 194.940 156.103,194.493 157.162,193.988 156.474 C 193.397 155.669,193.491 153.084,194.141 152.258 C 194.487 151.818,194.674 151.175,194.676 150.424 C 194.679 148.621,195.198 145.856,195.622 145.388 C 196.040 144.926,196.150 142.864,195.769 142.629 C 195.495 142.459,195.215 143.351,195.210 144.414 C 195.207 144.948,195.028 145.221,194.563 145.397 C 194.210 145.532,193.834 145.918,193.728 146.256 C 193.622 146.594,193.282 147.185,192.973 147.570 C 192.663 147.954,192.170 148.669,191.877 149.159 C 191.585 149.649,191.088 150.473,190.774 150.990 C 190.461 151.508,189.951 151.969,189.643 152.016 C 189.202 152.083,189.081 152.290,189.081 152.982 C 189.081 153.898,188.509 154.632,188.028 154.335 C 187.568 154.050,187.714 152.899,188.282 152.330 C 188.575 152.037,188.815 151.515,188.815 151.169 C 188.815 150.823,189.103 150.117,189.454 149.599 C 189.806 149.081,190.181 148.375,190.289 148.030 C 190.397 147.685,190.769 147.065,191.115 146.651 C 191.461 146.237,191.746 145.578,191.748 145.186 C 191.753 144.342,191.977 143.964,192.610 143.731 C 192.886 143.629,193.076 143.284,193.076 142.885 C 193.076 142.514,193.085 142.124,193.096 142.017 C 193.148 141.513,192.573 141.721,192.497 142.234 C 192.449 142.557,192.184 142.954,191.909 143.115 C 191.633 143.277,191.141 143.648,190.816 143.941 C 190.287 144.418,187.470 146.970,184.864 149.334 C 184.340 149.810,183.756 150.200,183.566 150.200 C 183.377 150.200,183.222 150.367,183.222 150.571 C 183.222 151.048,182.414 151.362,182.071 151.019 C 181.752 150.700,182.306 149.933,182.856 149.933 C 183.057 149.933,183.222 149.697,183.222 149.407 C 183.222 149.117,183.522 148.684,183.888 148.444 C 184.254 148.204,184.554 147.845,184.554 147.645 C 184.554 147.446,184.835 147.098,185.179 146.873 C 185.522 146.648,185.939 146.166,186.105 145.802 C 186.271 145.438,186.589 145.140,186.812 145.140 C 187.035 145.140,187.217 145.024,187.217 144.882 C 187.217 144.741,187.607 144.221,188.083 143.726 C 188.559 143.232,189.297 142.391,189.723 141.858 C 190.149 141.324,190.719 140.818,190.988 140.732 C 191.834 140.464,191.568 139.893,190.660 140.026 C 190.125 140.104,189.764 140.352,189.616 140.741 C 189.449 141.180,189.106 141.374,188.306 141.481 C 187.698 141.563,186.861 141.930,186.400 142.318 C 185.948 142.698,185.335 143.009,185.038 143.009 C 184.741 143.009,184.142 143.309,183.706 143.675 C 183.225 144.080,182.583 144.341,182.068 144.341 C 181.508 144.341,181.107 144.522,180.887 144.874 C 180.435 145.599,178.961 145.620,178.961 144.902 C 178.961 144.355,179.454 144.075,180.417 144.075 C 180.797 144.075,181.080 143.881,181.163 143.565 C 181.236 143.284,181.700 142.849,182.193 142.597 C 182.686 142.344,183.186 141.974,183.304 141.772 C 183.422 141.571,183.959 141.222,184.498 140.997 C 185.038 140.771,185.720 140.367,186.015 140.098 C 186.310 139.829,186.813 139.529,187.134 139.432 C 187.458 139.334,187.753 138.996,187.799 138.669 C 187.870 138.173,188.095 138.061,189.265 137.944 C 190.882 137.781,191.294 137.514,190.309 137.267 C 189.518 137.069,187.750 137.333,187.750 137.649 C 187.750 137.967,185.221 138.482,183.664 138.482 C 182.746 138.482,181.927 138.677,181.221 139.063 C 180.007 139.728,177.344 139.899,176.792 139.348 C 176.232 138.789,176.901 138.436,178.814 138.283 C 180.122 138.178,180.645 138.021,180.829 137.677 C 181.143 137.090,181.652 136.891,183.535 136.617 C 184.366 136.497,185.384 136.148,185.798 135.843 C 187.336 134.711,190.573 134.766,191.845 135.946 C 193.476 137.457,194.044 136.361,192.602 134.487 C 192.546 134.414,189.064 134.271,184.865 134.170 C 179.918 134.050,176.727 133.859,175.801 133.625 L 174.371 133.264 175.401 132.922 C 176.055 132.704,179.207 132.486,184.021 132.325 C 193.113 132.020,193.609 131.906,193.609 130.106 C 193.609 129.694,192.002 130.011,191.756 130.471 C 191.084 131.726,187.416 131.741,185.646 130.495 C 185.265 130.227,184.179 129.879,183.233 129.721 C 181.973 129.511,181.346 129.255,180.892 128.765 C 180.381 128.214,180.025 128.096,178.868 128.096 C 177.273 128.096,176.134 127.506,176.831 127.040 C 177.727 126.440,181.358 126.895,181.358 127.606 C 181.358 127.729,181.978 127.830,182.735 127.830 C 184.645 127.830,187.523 128.364,187.958 128.799 C 188.357 129.198,190.679 129.304,190.679 128.923 C 190.679 128.584,189.983 128.362,188.920 128.362 C 188.190 128.362,187.952 128.228,187.753 127.704 C 187.610 127.329,187.097 126.876,186.561 126.652 C 186.043 126.436,185.619 126.146,185.619 126.008 C 185.619 125.870,185.329 125.684,184.974 125.595 C 184.619 125.506,183.990 125.160,183.576 124.827 C 183.162 124.494,182.495 124.055,182.095 123.852 C 181.287 123.443,180.892 122.597,181.312 122.177 C 181.706 121.782,183.411 122.169,183.814 122.744 C 184.001 123.012,184.574 123.322,185.087 123.434 C 185.599 123.546,186.357 123.922,186.771 124.269 C 187.185 124.616,187.763 124.900,188.054 124.900 C 188.792 124.900,189.614 125.381,189.614 125.812 C 189.614 126.027,189.993 126.218,190.546 126.282 C 191.645 126.411,191.850 125.850,190.801 125.587 C 190.428 125.493,190.053 125.233,189.967 125.009 C 189.765 124.482,189.020 123.602,187.284 121.839 C 186.515 121.058,185.885 120.352,185.885 120.269 C 185.885 120.187,185.286 119.491,184.554 118.723 C 183.822 117.955,183.222 117.113,183.222 116.853 C 183.222 116.592,183.067 116.378,182.876 116.378 C 182.268 116.378,181.866 115.796,182.199 115.396 C 182.542 114.982,183.222 115.391,183.222 116.011 C 183.222 116.213,183.459 116.378,183.749 116.378 C 184.038 116.378,184.472 116.678,184.712 117.044 C 184.952 117.410,185.287 117.710,185.457 117.710 C 185.628 117.710,186.081 118.039,186.465 118.442 C 187.079 119.086,187.981 119.907,191.051 122.621 C 191.475 122.996,191.922 123.302,192.044 123.302 C 192.167 123.302,192.342 123.602,192.434 123.968 C 192.695 125.009,193.254 124.794,193.126 123.702 C 193.062 123.148,192.871 122.770,192.657 122.770 C 192.220 122.770,191.878 122.147,191.647 120.929 C 191.552 120.430,191.251 119.865,190.979 119.674 C 190.706 119.483,190.413 118.977,190.328 118.549 C 190.242 118.121,189.867 117.321,189.493 116.771 C 189.120 116.221,188.815 115.488,188.815 115.143 C 188.815 114.797,188.575 114.274,188.282 113.981 C 187.684 113.383,187.594 112.645,188.063 112.177 C 188.544 111.696,189.081 112.297,189.081 113.317 C 189.081 113.958,189.219 114.222,189.607 114.323 C 189.896 114.399,190.387 114.892,190.699 115.419 C 191.010 115.947,191.354 116.378,191.464 116.378 C 191.574 116.378,191.888 116.887,192.162 117.510 C 192.437 118.132,192.805 118.733,192.982 118.844 C 193.158 118.955,193.437 119.452,193.601 119.950 C 193.801 120.557,194.114 120.908,194.553 121.018 C 195.086 121.152,195.206 121.348,195.206 122.087 C 195.206 123.140,195.430 123.835,195.768 123.835 C 196.150 123.835,196.041 121.607,195.630 121.020 C 195.155 120.343,194.674 117.778,194.674 115.930 C 194.674 115.151,194.573 114.514,194.450 114.514 C 193.739 114.514,193.285 110.882,193.884 109.987 C 194.350 109.290,194.940 110.428,194.940 112.024 C 194.940 113.180,195.058 113.536,195.609 114.048 C 196.099 114.502,196.355 115.129,196.565 116.389 C 196.723 117.335,197.071 118.421,197.339 118.802 C 198.586 120.573,198.569 124.192,197.312 124.978 C 196.833 125.276,196.621 126.226,196.958 126.563 C 197.233 126.838,198.680 125.846,198.800 125.300 C 198.864 125.007,199.030 121.292,199.169 117.044 C 199.323 112.332,199.551 108.906,199.754 108.256 L 200.087 107.190 200.461 108.788 C 200.705 109.835,200.876 112.682,200.957 117.044 M180.577 121.181 C 181.331 121.585,181.227 122.237,180.409 122.237 C 179.328 122.237,178.593 121.749,178.977 121.286 C 179.351 120.836,179.868 120.802,180.577 121.181 M193.875 125.677 C 193.875 126.004,194.047 126.232,194.294 126.232 C 194.542 126.232,194.678 126.051,194.627 125.788 C 194.497 125.120,193.875 125.028,193.875 125.677 M205.418 125.577 C 205.217 126.101,205.455 126.341,205.976 126.142 C 206.210 126.052,206.316 125.812,206.225 125.576 C 206.023 125.050,205.620 125.051,205.418 125.577 M195.539 126.959 C 195.356 127.023,195.206 127.253,195.206 127.471 C 195.206 127.934,196.307 127.868,196.462 127.396 C 196.576 127.049,196.027 126.789,195.539 126.959 M192.077 127.364 C 192.245 127.867,193.076 127.939,193.076 127.450 C 193.076 127.203,192.848 127.031,192.521 127.031 C 192.196 127.031,192.012 127.168,192.077 127.364 M203.795 127.364 C 203.963 127.867,204.794 127.939,204.794 127.450 C 204.794 127.203,204.566 127.031,204.239 127.031 C 203.913 127.031,203.730 127.168,203.795 127.364 M206.924 127.430 C 206.924 127.730,207.111 127.840,207.523 127.782 C 207.853 127.735,208.123 127.577,208.123 127.430 C 208.123 127.284,207.853 127.125,207.523 127.079 C 207.111 127.020,206.924 127.130,206.924 127.430 M194.057 128.535 C 193.957 128.635,193.875 128.963,193.875 129.263 C 193.875 129.777,193.901 129.782,194.329 129.353 C 194.640 129.043,194.697 128.812,194.511 128.626 C 194.361 128.476,194.157 128.435,194.057 128.535 M205.452 128.640 C 205.203 129.044,205.879 129.780,206.203 129.457 C 206.501 129.158,206.269 128.362,205.883 128.362 C 205.741 128.362,205.547 128.487,205.452 128.640 M205.646 136.937 C 205.470 137.113,205.326 137.413,205.326 137.603 C 205.326 138.092,206.109 138.035,206.302 137.532 C 206.522 136.958,206.051 136.532,205.646 136.937 M193.875 137.417 C 193.875 137.929,194.396 138.139,194.760 137.774 C 194.962 137.573,194.458 136.884,194.109 136.884 C 193.980 136.884,193.875 137.124,193.875 137.417 M192.125 138.778 C 191.925 139.103,192.523 139.591,192.863 139.381 C 192.980 139.309,193.076 139.077,193.076 138.866 C 193.076 138.414,192.390 138.351,192.125 138.778 M195.325 138.772 C 195.066 139.190,195.626 139.648,196.151 139.446 C 196.514 139.307,196.536 139.200,196.269 138.878 C 195.879 138.409,195.571 138.374,195.325 138.772 M203.847 138.772 C 203.749 138.931,203.791 139.184,203.941 139.334 C 204.277 139.670,204.794 139.386,204.794 138.866 C 204.794 138.417,204.108 138.349,203.847 138.772 M207.057 138.748 C 206.790 139.181,207.150 139.508,207.729 139.357 C 208.152 139.246,208.202 139.137,207.962 138.849 C 207.603 138.415,207.285 138.380,207.057 138.748 M193.875 140.613 C 193.875 140.908,194.052 141.145,194.274 141.145 C 194.496 141.145,194.674 140.908,194.674 140.613 C 194.674 140.317,194.496 140.080,194.274 140.080 C 194.052 140.080,193.875 140.317,193.875 140.613 M205.445 140.369 C 205.347 140.529,205.404 140.797,205.574 140.966 C 205.908 141.300,206.481 140.707,206.225 140.292 C 206.039 139.991,205.655 140.029,205.445 140.369 M220.895 144.434 C 221.165 144.631,221.301 144.931,221.197 145.099 C 220.930 145.532,219.834 145.481,219.450 145.018 C 218.771 144.200,219.933 143.730,220.895 144.434 " stroke="none" fill="#fafafb" fill-rule="evenodd"></path><path id="path2" d="M0.000 221.971 L 0.000 266.312 200.000 266.312 L 400.000 266.312 400.000 221.971 L 400.000 177.630 200.000 177.630 L 0.000 177.630 0.000 221.971 " stroke="none" fill="#148c04" fill-rule="evenodd"></path><path id="path3" d="M198.402 98.252 C 197.889 98.367,197.111 98.607,196.671 98.784 C 196.232 98.961,194.505 99.218,192.834 99.354 C 190.325 99.559,189.735 99.690,189.441 100.108 C 189.213 100.435,188.607 100.681,187.741 100.800 C 186.961 100.907,186.093 101.236,185.675 101.584 C 185.278 101.913,184.594 102.270,184.154 102.376 C 183.715 102.482,183.116 102.786,182.823 103.052 C 182.530 103.317,181.991 103.624,181.625 103.734 C 181.258 103.844,180.719 104.165,180.426 104.446 C 179.344 105.486,177.569 106.791,177.236 106.791 C 177.047 106.791,176.696 107.091,176.456 107.457 C 176.216 107.823,175.840 108.123,175.620 108.123 C 175.400 108.123,175.109 108.415,174.973 108.772 C 174.837 109.129,174.480 109.553,174.181 109.714 C 173.881 109.874,173.635 110.168,173.635 110.367 C 173.635 110.566,173.276 111.114,172.836 111.585 C 172.397 112.055,172.037 112.604,172.037 112.805 C 172.037 113.006,171.745 113.361,171.388 113.595 C 171.031 113.829,170.665 114.359,170.574 114.772 C 170.484 115.186,170.183 115.729,169.907 115.979 C 169.630 116.229,169.327 116.783,169.234 117.211 C 169.140 117.639,168.791 118.315,168.460 118.715 C 168.128 119.114,167.772 119.979,167.670 120.636 C 167.567 121.294,167.245 122.086,166.953 122.396 C 166.527 122.849,166.375 123.549,166.180 125.941 C 166.031 127.777,165.768 129.248,165.493 129.773 C 164.747 131.204,164.687 134.336,165.370 136.218 C 165.717 137.175,166.048 138.982,166.196 140.720 C 166.399 143.100,166.535 143.688,166.951 143.980 C 167.276 144.207,167.524 144.810,167.640 145.648 C 167.747 146.429,168.031 147.152,168.339 147.431 C 168.625 147.689,168.989 148.418,169.148 149.050 C 169.307 149.682,169.534 150.200,169.653 150.200 C 169.771 150.200,170.081 150.681,170.340 151.269 C 170.600 151.857,171.088 152.519,171.425 152.740 C 171.762 152.961,172.037 153.314,172.037 153.526 C 172.037 153.737,172.397 154.319,172.836 154.819 C 173.276 155.320,173.635 155.859,173.635 156.018 C 173.635 156.176,173.881 156.438,174.181 156.598 C 174.480 156.759,174.837 157.182,174.973 157.539 C 175.109 157.897,175.400 158.189,175.620 158.189 C 175.840 158.189,176.216 158.489,176.456 158.855 C 176.696 159.221,177.028 159.521,177.194 159.522 C 177.361 159.523,177.953 159.942,178.510 160.454 C 179.068 160.966,179.683 161.385,179.878 161.385 C 180.072 161.385,180.428 161.684,180.668 162.051 C 180.908 162.417,181.288 162.716,181.512 162.716 C 181.736 162.716,182.360 163.016,182.899 163.382 C 183.438 163.748,184.081 164.048,184.329 164.048 C 184.577 164.048,185.143 164.354,185.588 164.728 C 186.086 165.147,186.928 165.492,187.785 165.628 C 188.578 165.753,189.316 166.042,189.506 166.301 C 189.760 166.649,190.512 166.813,192.722 167.004 C 194.308 167.140,196.295 167.490,197.138 167.781 C 199.088 168.453,200.919 168.451,202.874 167.774 C 203.727 167.479,205.671 167.142,207.218 167.022 C 209.376 166.853,210.197 166.677,210.801 166.251 C 211.232 165.947,212.114 165.622,212.761 165.529 C 213.408 165.435,214.133 165.132,214.374 164.854 C 214.615 164.577,215.164 164.266,215.595 164.164 C 216.026 164.062,216.760 163.694,217.226 163.347 C 217.692 163.000,218.244 162.716,218.452 162.716 C 218.660 162.716,219.177 162.410,219.601 162.035 C 221.257 160.572,222.704 159.521,223.061 159.521 C 223.267 159.521,223.435 159.330,223.435 159.098 C 223.435 158.866,223.776 158.547,224.192 158.390 C 224.630 158.224,225.069 157.786,225.234 157.348 C 225.391 156.932,225.710 156.591,225.942 156.591 C 226.175 156.591,226.365 156.423,226.365 156.217 C 226.365 155.859,227.416 154.413,228.879 152.757 C 229.254 152.333,229.561 151.811,229.561 151.597 C 229.561 151.384,229.860 150.853,230.226 150.417 C 230.593 149.982,230.892 149.405,230.892 149.134 C 230.892 148.864,231.198 148.279,231.572 147.835 C 231.992 147.336,232.336 146.494,232.472 145.637 C 232.601 144.818,232.885 144.107,233.163 143.903 C 233.532 143.634,233.686 142.944,233.871 140.728 C 234.002 139.172,234.308 137.400,234.552 136.792 C 235.168 135.255,235.160 131.040,234.539 129.482 C 234.288 128.853,233.981 127.145,233.858 125.685 C 233.693 123.738,233.506 122.891,233.156 122.503 C 232.893 122.212,232.580 121.359,232.461 120.607 C 232.327 119.761,232.056 119.107,231.749 118.892 C 231.477 118.701,231.103 118.043,230.919 117.428 C 230.735 116.814,230.354 116.064,230.073 115.762 C 229.791 115.460,229.561 115.002,229.561 114.745 C 229.561 114.488,229.303 114.097,228.988 113.877 C 228.673 113.656,228.164 113.069,227.856 112.572 C 226.480 110.348,226.030 109.720,225.813 109.720 C 225.685 109.720,225.394 109.361,225.166 108.921 C 224.939 108.482,224.579 108.123,224.367 108.123 C 224.154 108.123,223.784 107.823,223.544 107.457 C 223.304 107.091,222.964 106.791,222.789 106.791 C 222.613 106.791,222.135 106.441,221.725 106.014 C 221.315 105.586,220.697 105.165,220.351 105.078 C 220.005 104.992,219.595 104.682,219.439 104.391 C 219.283 104.100,219.010 103.861,218.832 103.860 C 218.654 103.860,217.969 103.501,217.310 103.063 C 216.651 102.624,215.911 102.265,215.666 102.265 C 215.421 102.264,214.882 101.981,214.468 101.635 C 214.041 101.279,213.164 100.925,212.444 100.819 C 211.732 100.714,210.964 100.406,210.695 100.117 C 210.307 99.701,209.627 99.555,207.136 99.352 C 205.442 99.214,203.631 98.923,203.112 98.706 C 201.908 98.203,199.604 97.981,198.402 98.252 M202.932 102.078 C 204.003 103.068,204.450 103.123,205.164 102.353 C 205.866 101.596,207.484 101.618,207.917 102.390 C 208.031 102.595,208.720 102.862,209.448 102.984 C 210.540 103.167,210.842 103.344,211.178 104.000 C 211.401 104.436,211.611 104.840,211.643 104.896 C 211.675 104.952,212.049 104.854,212.474 104.678 C 213.505 104.251,215.111 104.557,215.322 105.220 C 215.410 105.498,215.803 105.800,216.196 105.893 C 217.137 106.115,218.069 106.984,218.518 108.056 C 218.843 108.831,218.994 108.921,219.965 108.921 C 220.864 108.921,221.102 109.036,221.353 109.587 C 221.520 109.953,221.748 110.253,221.859 110.253 C 222.643 110.253,224.332 112.497,224.275 113.463 C 224.217 114.445,224.258 114.500,225.247 114.766 C 226.422 115.082,227.044 115.663,227.298 116.682 C 227.394 117.068,227.763 117.637,228.117 117.945 C 228.814 118.550,229.010 120.209,228.499 121.165 C 228.280 121.574,228.369 121.701,229.033 121.933 C 229.850 122.217,230.360 123.093,230.360 124.210 C 230.360 124.544,230.599 125.034,230.892 125.300 C 231.248 125.622,231.425 126.120,231.425 126.803 C 231.425 127.537,231.274 127.919,230.892 128.158 C 230.191 128.595,230.220 129.014,231.025 130.070 C 231.616 130.844,231.691 131.200,231.691 133.227 C 231.691 135.276,231.622 135.594,231.025 136.303 C 230.221 137.259,230.181 137.835,230.892 138.216 C 231.288 138.427,231.425 138.773,231.425 139.559 C 231.425 140.288,231.259 140.760,230.892 141.074 C 230.599 141.325,230.360 141.795,230.360 142.119 C 230.360 143.211,229.835 144.118,229.025 144.423 C 228.199 144.735,228.039 144.991,228.495 145.273 C 229.050 145.616,228.799 147.794,228.133 148.415 C 227.787 148.737,227.413 149.301,227.301 149.667 C 227.001 150.654,226.628 151.019,225.370 151.558 C 224.327 152.005,224.234 152.125,224.234 153.025 C 224.234 154.451,220.856 157.776,219.672 157.516 C 218.968 157.361,218.868 157.439,218.412 158.505 C 217.863 159.783,217.501 160.156,216.511 160.457 C 216.145 160.569,215.571 160.955,215.235 161.315 C 214.622 161.972,213.137 162.083,211.978 161.558 C 211.688 161.427,211.486 161.603,211.270 162.176 C 210.960 162.995,210.058 163.515,208.945 163.515 C 208.611 163.515,208.121 163.755,207.856 164.048 C 207.566 164.369,207.036 164.581,206.525 164.581 C 206.013 164.581,205.483 164.369,205.193 164.048 C 204.549 163.337,203.951 163.377,203.196 164.181 C 202.619 164.795,202.385 164.847,200.178 164.847 C 198.037 164.847,197.695 164.777,196.914 164.181 C 195.859 163.376,195.319 163.340,194.940 164.048 C 194.571 164.738,193.114 164.761,192.246 164.089 C 191.897 163.818,191.151 163.524,190.589 163.436 C 189.319 163.236,188.897 162.896,188.678 161.899 C 188.516 161.161,188.475 161.140,187.936 161.518 C 187.020 162.159,185.482 162.033,184.880 161.267 C 184.598 160.909,184.062 160.539,183.687 160.445 C 182.900 160.248,182.122 159.463,181.581 158.322 C 181.326 157.784,181.032 157.544,180.681 157.586 C 179.699 157.705,178.942 157.375,178.692 156.717 C 178.555 156.355,178.257 156.059,178.030 156.059 C 177.804 156.059,177.488 155.772,177.328 155.422 C 177.169 155.072,176.752 154.655,176.402 154.496 C 175.868 154.253,175.766 154.013,175.766 153.007 C 175.766 151.917,175.699 151.792,175.033 151.638 C 173.778 151.347,173.134 150.773,172.841 149.684 C 172.667 149.040,172.358 148.571,172.041 148.470 C 171.374 148.258,171.053 146.653,171.461 145.573 C 171.626 145.134,171.734 144.768,171.700 144.758 C 170.627 144.454,170.032 143.811,169.853 142.761 C 169.743 142.118,169.411 141.335,169.115 141.019 C 168.364 140.220,168.409 138.890,169.210 138.192 C 169.813 137.668,169.906 136.618,169.350 136.618 C 168.220 136.618,167.884 131.582,168.929 130.313 C 169.887 129.151,169.940 128.754,169.221 128.128 C 168.422 127.433,168.366 126.175,169.101 125.440 C 169.390 125.150,169.682 124.641,169.750 124.308 C 169.818 123.974,169.941 123.380,170.024 122.986 C 170.131 122.477,170.437 122.176,171.083 121.943 C 171.960 121.625,171.977 121.593,171.580 120.988 C 171.020 120.132,171.301 118.579,172.162 117.781 C 172.533 117.437,172.840 116.951,172.845 116.700 C 172.858 115.961,173.527 115.287,174.615 114.915 C 175.549 114.595,175.639 114.476,175.715 113.471 C 175.775 112.663,175.965 112.265,176.437 111.956 C 176.788 111.726,177.143 111.326,177.225 111.069 C 177.307 110.811,177.661 110.469,178.011 110.310 C 178.362 110.150,178.727 109.772,178.823 109.470 C 178.963 109.031,179.220 108.921,180.118 108.921 C 181.177 108.921,181.268 108.859,181.765 107.790 C 182.142 106.976,182.590 106.513,183.356 106.143 C 183.941 105.860,184.574 105.416,184.761 105.155 C 185.249 104.477,186.755 104.257,187.696 104.727 C 188.458 105.107,188.475 105.099,188.793 104.222 C 189.009 103.624,189.329 103.286,189.764 103.197 C 190.121 103.123,190.742 102.993,191.145 102.909 C 191.548 102.824,192.065 102.586,192.294 102.379 C 193.149 101.610,194.281 101.617,195.004 102.398 C 195.735 103.186,196.201 103.106,197.181 102.022 C 197.963 101.158,201.979 101.197,202.932 102.078 M199.895 112.272 C 199.614 113.004,199.711 124.322,200.000 124.501 C 200.175 124.609,200.266 122.462,200.266 118.258 C 200.266 112.007,200.229 111.403,199.895 112.272 M195.491 116.993 C 195.480 117.961,195.572 118.478,195.739 118.375 C 196.059 118.178,196.059 116.723,195.739 115.979 C 195.575 115.596,195.505 115.883,195.491 116.993 M204.220 116.445 C 204.165 116.921,204.197 117.670,204.292 118.109 C 204.417 118.688,204.473 118.450,204.496 117.244 C 204.530 115.457,204.382 115.031,204.220 116.445 M191.212 118.391 C 191.212 118.766,191.320 119.006,191.453 118.924 C 191.586 118.842,191.632 118.535,191.555 118.242 C 191.363 117.509,191.212 117.575,191.212 118.391 M208.522 118.509 C 208.522 119.006,208.593 119.077,208.842 118.828 C 209.090 118.580,209.090 118.438,208.842 118.189 C 208.593 117.941,208.522 118.012,208.522 118.509 M192.543 120.757 C 192.543 121.626,192.900 122.216,193.159 121.775 C 193.352 121.446,193.037 119.840,192.779 119.840 C 192.650 119.840,192.543 120.253,192.543 120.757 M206.976 120.706 C 206.824 121.276,206.844 121.636,207.035 121.761 C 207.358 121.974,207.676 121.347,207.704 120.439 C 207.732 119.538,207.238 119.719,206.976 120.706 M202.825 121.060 C 202.565 121.736,202.639 123.302,202.929 123.302 C 203.076 123.302,203.196 122.703,203.196 121.971 C 203.196 120.585,203.099 120.347,202.825 121.060 M196.804 122.104 C 196.804 122.763,196.924 123.302,197.071 123.302 C 197.217 123.302,197.337 122.763,197.337 122.104 C 197.337 121.445,197.217 120.905,197.071 120.905 C 196.924 120.905,196.804 121.445,196.804 122.104 M193.875 122.903 C 193.875 123.123,193.995 123.302,194.141 123.302 C 194.288 123.302,194.407 123.123,194.407 122.903 C 194.407 122.683,194.288 122.503,194.141 122.503 C 193.995 122.503,193.875 122.683,193.875 122.903 M184.554 124.470 C 184.554 124.706,185.631 124.830,185.768 124.609 C 185.850 124.476,185.610 124.368,185.235 124.368 C 184.861 124.368,184.554 124.413,184.554 124.470 M214.381 124.634 C 214.381 124.946,214.586 124.946,215.313 124.634 C 215.785 124.431,215.762 124.403,215.113 124.386 C 214.710 124.376,214.381 124.487,214.381 124.634 M186.818 125.930 C 187.191 126.302,188.388 126.419,188.549 126.099 C 188.623 125.949,188.214 125.795,187.617 125.748 C 186.907 125.692,186.640 125.752,186.818 125.930 M211.451 125.965 C 211.451 126.112,211.864 126.232,212.368 126.232 C 212.872 126.232,213.358 126.112,213.449 125.965 C 213.548 125.805,213.185 125.699,212.532 125.699 C 211.938 125.699,211.451 125.819,211.451 125.965 M189.348 127.297 C 189.348 127.443,189.527 127.563,189.747 127.563 C 189.967 127.563,190.146 127.443,190.146 127.297 C 190.146 127.150,189.967 127.031,189.747 127.031 C 189.527 127.031,189.348 127.150,189.348 127.297 M209.905 127.317 C 209.957 127.474,210.114 127.603,210.253 127.603 C 210.392 127.603,210.549 127.474,210.601 127.317 C 210.654 127.159,210.497 127.031,210.253 127.031 C 210.009 127.031,209.852 127.159,209.905 127.317 M197.488 128.251 C 193.102 129.857,193.766 137.118,198.411 138.355 C 203.845 139.801,207.694 133.981,204.309 129.436 C 203.254 128.019,199.772 127.414,197.488 128.251 M182.823 128.895 C 183.567 129.214,185.022 129.214,185.220 128.895 C 185.323 128.728,184.805 128.636,183.837 128.647 C 182.727 128.661,182.441 128.731,182.823 128.895 M215.313 128.895 C 215.403 129.041,215.943 129.161,216.511 129.161 C 217.080 129.161,217.619 129.041,217.710 128.895 C 217.811 128.731,217.352 128.628,216.511 128.628 C 215.670 128.628,215.211 128.731,215.313 128.895 M187.750 130.226 C 187.750 130.373,188.289 130.493,188.948 130.493 C 189.607 130.493,190.146 130.373,190.146 130.226 C 190.146 130.080,189.607 129.960,188.948 129.960 C 188.289 129.960,187.750 130.080,187.750 130.226 M209.987 130.226 C 209.885 130.391,210.339 130.493,211.169 130.493 C 211.910 130.493,212.517 130.373,212.517 130.226 C 212.517 130.080,211.984 129.960,211.334 129.960 C 210.683 129.960,210.077 130.080,209.987 130.226 M178.961 133.156 C 178.697 133.326,180.758 133.415,185.036 133.418 C 189.285 133.421,191.453 133.331,191.345 133.156 C 191.128 132.805,179.504 132.805,178.961 133.156 M209.055 133.156 C 208.791 133.326,210.923 133.409,215.313 133.399 C 219.275 133.391,221.755 133.292,221.438 133.156 C 220.695 132.836,209.549 132.836,209.055 133.156 M187.750 136.085 C 187.464 136.270,187.747 136.345,188.748 136.347 C 189.517 136.350,190.146 136.232,190.146 136.085 C 190.146 135.745,188.277 135.745,187.750 136.085 M209.987 136.085 C 209.884 136.251,210.405 136.350,211.369 136.347 C 212.466 136.345,212.800 136.268,212.517 136.085 C 211.991 135.746,210.197 135.746,209.987 136.085 M183.222 137.445 C 182.475 137.580,182.621 137.620,183.955 137.648 C 184.870 137.667,185.619 137.637,185.619 137.580 C 185.619 137.368,184.120 137.283,183.222 137.445 M215.427 137.449 C 214.991 137.571,215.280 137.639,216.312 137.657 C 217.154 137.671,217.843 137.636,217.843 137.579 C 217.843 137.370,216.055 137.274,215.427 137.449 M209.987 139.015 C 209.896 139.161,210.076 139.281,210.386 139.281 C 210.696 139.281,210.876 139.161,210.786 139.015 C 210.695 138.868,210.515 138.748,210.386 138.748 C 210.257 138.748,210.077 138.868,209.987 139.015 M187.350 140.212 C 186.341 140.516,186.320 140.543,186.957 140.720 C 187.776 140.947,188.868 140.591,188.604 140.183 C 188.468 139.972,188.119 139.980,187.350 140.212 M211.451 140.313 C 211.451 140.608,213.014 140.932,213.371 140.711 C 213.765 140.468,213.047 140.089,212.184 140.084 C 211.781 140.082,211.451 140.185,211.451 140.313 M185.033 141.997 C 185.282 142.246,185.424 142.246,185.672 141.997 C 185.921 141.749,185.850 141.678,185.353 141.678 C 184.856 141.678,184.785 141.749,185.033 141.997 M199.911 141.855 C 199.628 142.138,199.712 153.748,200.000 154.194 C 200.171 154.458,200.260 152.404,200.262 148.136 C 200.264 144.584,200.226 141.678,200.178 141.678 C 200.129 141.678,200.009 141.758,199.911 141.855 M214.381 141.944 C 214.381 142.278,214.663 142.278,215.180 141.944 C 215.503 141.735,215.465 141.685,214.980 141.682 C 214.650 141.680,214.381 141.798,214.381 141.944 M189.492 143.257 C 189.310 143.552,189.730 143.869,189.976 143.623 C 190.229 143.370,190.182 143.009,189.896 143.009 C 189.758 143.009,189.576 143.121,189.492 143.257 M193.875 143.409 C 193.875 143.653,194.004 143.810,194.161 143.757 C 194.319 143.705,194.447 143.548,194.447 143.409 C 194.447 143.270,194.319 143.113,194.161 143.060 C 194.004 143.008,193.875 143.165,193.875 143.409 M196.982 143.187 C 196.703 143.466,196.774 145.356,197.071 145.539 C 197.235 145.641,197.337 145.187,197.337 144.357 C 197.337 142.991,197.300 142.869,196.982 143.187 M202.841 143.187 C 202.562 143.466,202.633 145.356,202.929 145.539 C 203.094 145.641,203.196 145.187,203.196 144.357 C 203.196 142.991,203.159 142.869,202.841 143.187 M205.711 143.299 C 205.613 143.458,205.666 143.722,205.829 143.885 C 206.046 144.102,206.125 144.025,206.125 143.595 C 206.125 142.952,205.987 142.853,205.711 143.299 M192.491 145.555 C 192.383 146.478,192.704 147.122,192.922 146.422 C 193.315 145.162,193.332 144.607,192.977 144.607 C 192.745 144.607,192.559 144.969,192.491 145.555 M206.928 145.340 C 206.934 146.358,207.362 147.028,207.604 146.397 C 207.823 145.826,207.538 144.607,207.185 144.607 C 207.042 144.607,206.926 144.937,206.928 145.340 M191.216 148.136 C 191.219 148.620,191.269 148.659,191.478 148.336 C 191.812 147.819,191.812 147.537,191.478 147.537 C 191.332 147.537,191.214 147.806,191.216 148.136 M204.346 149.134 C 204.346 150.087,204.395 150.476,204.454 150.000 C 204.513 149.524,204.513 148.745,204.454 148.269 C 204.395 147.793,204.346 148.182,204.346 149.134 M195.491 149.452 C 195.505 150.487,195.571 150.723,195.739 150.333 C 196.058 149.591,196.058 148.400,195.739 148.202 C 195.573 148.100,195.480 148.573,195.491 149.452 " stroke="none" fill="#0a0a86" fill-rule="evenodd"></path><path id="path4" d="M197.183 97.469 C 196.000 97.572,194.502 97.855,193.854 98.097 C 193.206 98.339,191.866 98.647,190.875 98.783 C 189.885 98.918,188.686 99.263,188.212 99.549 C 187.738 99.834,186.913 100.146,186.379 100.241 C 185.844 100.336,185.125 100.628,184.781 100.890 C 184.436 101.153,183.735 101.529,183.222 101.726 C 182.710 101.922,182.051 102.283,181.758 102.527 C 181.465 102.771,180.626 103.340,179.893 103.791 C 176.746 105.732,169.907 112.819,169.907 114.140 C 169.907 114.230,169.607 114.660,169.241 115.095 C 168.875 115.530,168.575 116.108,168.575 116.378 C 168.575 116.649,168.295 117.209,167.952 117.623 C 167.609 118.037,167.180 118.975,167.000 119.707 C 166.819 120.439,166.493 121.236,166.275 121.477 C 166.058 121.718,165.765 122.737,165.625 123.741 C 165.485 124.744,165.163 126.165,164.909 126.897 C 164.236 128.839,164.235 137.796,164.907 139.547 C 165.160 140.206,165.481 141.556,165.620 142.547 C 165.759 143.537,166.107 144.736,166.393 145.210 C 166.679 145.684,166.990 146.507,167.084 147.038 C 167.178 147.570,167.553 148.325,167.915 148.716 C 168.278 149.108,168.575 149.653,168.575 149.927 C 168.575 150.201,168.875 150.781,169.241 151.216 C 169.607 151.652,169.907 152.117,169.907 152.250 C 169.907 152.745,174.331 158.315,175.085 158.770 C 175.250 158.869,175.851 159.390,176.421 159.927 C 177.683 161.118,180.065 162.895,180.887 163.260 C 181.219 163.408,181.899 163.825,182.396 164.188 C 182.894 164.550,183.505 164.847,183.753 164.847 C 184.002 164.847,184.420 165.084,184.682 165.374 C 184.945 165.664,185.593 165.977,186.122 166.070 C 186.651 166.162,187.497 166.473,188.001 166.762 C 188.506 167.051,189.849 167.450,190.986 167.650 C 192.123 167.850,193.627 168.219,194.329 168.471 C 196.393 169.210,203.520 169.153,205.992 168.377 C 207.017 168.055,208.575 167.676,209.454 167.534 C 210.333 167.392,211.527 167.029,212.107 166.727 C 212.687 166.425,213.419 166.178,213.734 166.178 C 214.049 166.178,214.748 165.879,215.288 165.513 C 215.827 165.146,216.424 164.847,216.613 164.847 C 216.803 164.847,217.367 164.540,217.867 164.164 C 218.366 163.789,219.433 163.068,220.237 162.562 C 222.484 161.150,224.707 159.147,227.750 155.792 C 228.565 154.895,230.093 152.666,230.093 152.376 C 230.093 152.247,230.382 151.830,230.735 151.449 C 231.088 151.068,231.455 150.404,231.549 149.973 C 231.644 149.542,231.952 148.981,232.234 148.726 C 232.515 148.471,232.821 147.829,232.913 147.300 C 233.006 146.771,233.359 145.739,233.699 145.007 C 234.039 144.274,234.493 142.776,234.709 141.678 C 234.924 140.579,235.248 139.141,235.429 138.482 C 235.962 136.534,235.881 129.644,235.300 127.563 C 235.034 126.611,234.672 124.993,234.496 123.968 C 234.319 122.943,233.916 121.626,233.599 121.043 C 233.282 120.459,233.023 119.762,233.023 119.494 C 233.023 118.873,232.519 117.906,232.052 117.630 C 231.853 117.513,231.691 117.204,231.691 116.943 C 231.691 116.683,231.314 115.880,230.852 115.159 C 230.391 114.438,229.705 113.369,229.328 112.783 C 228.578 111.617,225.710 108.184,225.048 107.662 C 224.820 107.481,224.035 106.794,223.302 106.135 C 221.669 104.664,220.375 103.725,219.259 103.202 C 218.793 102.983,218.328 102.669,218.226 102.504 C 218.124 102.339,217.408 101.924,216.635 101.582 C 215.861 101.240,215.159 100.848,215.074 100.710 C 214.989 100.572,214.469 100.375,213.918 100.272 C 213.367 100.169,212.317 99.808,211.585 99.470 C 210.852 99.132,209.534 98.772,208.655 98.669 C 207.776 98.567,206.638 98.308,206.125 98.094 C 205.354 97.772,200.530 97.149,199.601 97.251 C 199.454 97.267,198.366 97.365,197.183 97.469 M203.112 98.706 C 203.631 98.923,205.442 99.214,207.136 99.352 C 209.627 99.555,210.307 99.701,210.695 100.117 C 210.964 100.406,211.732 100.714,212.444 100.819 C 213.164 100.925,214.041 101.279,214.468 101.635 C 214.882 101.981,215.421 102.264,215.666 102.265 C 215.911 102.265,216.651 102.624,217.310 103.063 C 217.969 103.501,218.654 103.860,218.832 103.860 C 219.010 103.861,219.283 104.100,219.439 104.391 C 219.595 104.682,220.005 104.992,220.351 105.078 C 220.697 105.165,221.315 105.586,221.725 106.014 C 222.135 106.441,222.613 106.791,222.789 106.791 C 222.964 106.791,223.304 107.091,223.544 107.457 C 223.784 107.823,224.154 108.123,224.367 108.123 C 224.579 108.123,224.939 108.482,225.166 108.921 C 225.394 109.361,225.685 109.720,225.813 109.720 C 226.030 109.720,226.480 110.348,227.856 112.572 C 228.164 113.069,228.673 113.656,228.988 113.877 C 229.303 114.097,229.561 114.488,229.561 114.745 C 229.561 115.002,229.791 115.460,230.073 115.762 C 230.354 116.064,230.735 116.814,230.919 117.428 C 231.103 118.043,231.477 118.701,231.749 118.892 C 232.056 119.107,232.327 119.761,232.461 120.607 C 232.580 121.359,232.893 122.212,233.156 122.503 C 233.506 122.891,233.693 123.738,233.858 125.685 C 233.981 127.145,234.288 128.853,234.539 129.482 C 235.160 131.040,235.168 135.255,234.552 136.792 C 234.308 137.400,234.002 139.172,233.871 140.728 C 233.686 142.944,233.532 143.634,233.163 143.903 C 232.885 144.107,232.601 144.818,232.472 145.637 C 232.336 146.494,231.992 147.336,231.572 147.835 C 231.198 148.279,230.892 148.864,230.892 149.134 C 230.892 149.405,230.593 149.982,230.226 150.417 C 229.860 150.853,229.561 151.384,229.561 151.597 C 229.561 151.811,229.254 152.333,228.879 152.757 C 227.416 154.413,226.365 155.859,226.365 156.217 C 226.365 156.423,226.175 156.591,225.942 156.591 C 225.710 156.591,225.391 156.932,225.234 157.348 C 225.069 157.786,224.630 158.224,224.192 158.390 C 223.776 158.547,223.435 158.866,223.435 159.098 C 223.435 159.330,223.267 159.521,223.061 159.521 C 222.704 159.521,221.257 160.572,219.601 162.035 C 219.177 162.410,218.660 162.716,218.452 162.716 C 218.244 162.716,217.692 163.000,217.226 163.347 C 216.760 163.694,216.026 164.062,215.595 164.164 C 215.164 164.266,214.615 164.577,214.374 164.854 C 214.133 165.132,213.408 165.435,212.761 165.529 C 212.114 165.622,211.232 165.947,210.801 166.251 C 210.197 166.677,209.376 166.853,207.218 167.022 C 205.671 167.142,203.727 167.479,202.874 167.774 C 200.919 168.451,199.088 168.453,197.138 167.781 C 196.295 167.490,194.308 167.140,192.722 167.004 C 190.512 166.813,189.760 166.649,189.506 166.301 C 189.316 166.042,188.578 165.753,187.785 165.628 C 186.928 165.492,186.086 165.147,185.588 164.728 C 185.143 164.354,184.577 164.048,184.329 164.048 C 184.081 164.048,183.438 163.748,182.899 163.382 C 182.360 163.016,181.736 162.716,181.512 162.716 C 181.288 162.716,180.908 162.417,180.668 162.051 C 180.428 161.684,180.072 161.385,179.878 161.385 C 179.683 161.385,179.068 160.966,178.510 160.454 C 177.953 159.942,177.361 159.523,177.194 159.522 C 177.028 159.521,176.696 159.221,176.456 158.855 C 176.216 158.489,175.840 158.189,175.620 158.189 C 175.400 158.189,175.109 157.897,174.973 157.539 C 174.837 157.182,174.480 156.759,174.181 156.598 C 173.881 156.438,173.635 156.176,173.635 156.018 C 173.635 155.859,173.276 155.320,172.836 154.819 C 172.397 154.319,172.037 153.737,172.037 153.526 C 172.037 153.314,171.762 152.961,171.425 152.740 C 171.088 152.519,170.600 151.857,170.340 151.269 C 170.081 150.681,169.771 150.200,169.653 150.200 C 169.534 150.200,169.307 149.682,169.148 149.050 C 168.989 148.418,168.625 147.689,168.339 147.431 C 168.031 147.152,167.747 146.429,167.640 145.648 C 167.524 144.810,167.276 144.207,166.951 143.980 C 166.535 143.688,166.399 143.100,166.196 140.720 C 166.048 138.982,165.717 137.175,165.370 136.218 C 164.687 134.336,164.747 131.204,165.493 129.773 C 165.768 129.248,166.031 127.777,166.180 125.941 C 166.375 123.549,166.527 122.849,166.953 122.396 C 167.245 122.086,167.567 121.294,167.670 120.636 C 167.772 119.979,168.128 119.114,168.460 118.715 C 168.791 118.315,169.140 117.639,169.234 117.211 C 169.327 116.783,169.630 116.229,169.907 115.979 C 170.183 115.729,170.484 115.186,170.574 114.772 C 170.665 114.359,171.031 113.829,171.388 113.595 C 171.745 113.361,172.037 113.006,172.037 112.805 C 172.037 112.604,172.397 112.055,172.836 111.585 C 173.276 111.114,173.635 110.566,173.635 110.367 C 173.635 110.168,173.881 109.874,174.181 109.714 C 174.480 109.553,174.837 109.129,174.973 108.772 C 175.109 108.415,175.400 108.123,175.620 108.123 C 175.840 108.123,176.216 107.823,176.456 107.457 C 176.696 107.091,177.047 106.791,177.236 106.791 C 177.569 106.791,179.344 105.486,180.426 104.446 C 180.719 104.165,181.258 103.844,181.625 103.734 C 181.991 103.624,182.530 103.317,182.823 103.052 C 183.116 102.786,183.715 102.482,184.154 102.376 C 184.594 102.270,185.278 101.913,185.675 101.584 C 186.093 101.236,186.961 100.907,187.741 100.800 C 188.607 100.681,189.213 100.435,189.441 100.108 C 189.735 99.690,190.325 99.559,192.834 99.354 C 194.505 99.218,196.232 98.961,196.671 98.784 C 198.731 97.954,201.239 97.923,203.112 98.706 M197.181 102.022 C 196.201 103.106,195.735 103.186,195.004 102.398 C 194.281 101.617,193.149 101.610,192.294 102.379 C 192.065 102.586,191.548 102.824,191.145 102.909 C 190.742 102.993,190.121 103.123,189.764 103.197 C 189.329 103.286,189.009 103.624,188.793 104.222 C 188.475 105.099,188.458 105.107,187.696 104.727 C 186.755 104.257,185.249 104.477,184.761 105.155 C 184.574 105.416,183.941 105.860,183.356 106.143 C 182.590 106.513,182.142 106.976,181.765 107.790 C 181.268 108.859,181.177 108.921,180.118 108.921 C 179.220 108.921,178.963 109.031,178.823 109.470 C 178.727 109.772,178.362 110.150,178.011 110.310 C 177.661 110.469,177.307 110.811,177.225 111.069 C 177.143 111.326,176.788 111.726,176.437 111.956 C 175.965 112.265,175.775 112.663,175.715 113.471 C 175.639 114.476,175.549 114.595,174.615 114.915 C 173.527 115.287,172.858 115.961,172.845 116.700 C 172.840 116.951,172.533 117.437,172.162 117.781 C 171.301 118.579,171.020 120.132,171.580 120.988 C 171.977 121.593,171.960 121.625,171.083 121.943 C 170.437 122.176,170.131 122.477,170.024 122.986 C 169.941 123.380,169.818 123.974,169.750 124.308 C 169.682 124.641,169.390 125.150,169.101 125.440 C 168.366 126.175,168.422 127.433,169.221 128.128 C 169.940 128.754,169.887 129.151,168.929 130.313 C 167.884 131.582,168.220 136.618,169.350 136.618 C 169.906 136.618,169.813 137.668,169.210 138.192 C 168.409 138.890,168.364 140.220,169.115 141.019 C 169.411 141.335,169.743 142.118,169.853 142.761 C 170.032 143.811,170.627 144.454,171.700 144.758 C 171.734 144.768,171.626 145.134,171.461 145.573 C 171.053 146.653,171.374 148.258,172.041 148.470 C 172.358 148.571,172.667 149.040,172.841 149.684 C 173.134 150.773,173.778 151.347,175.033 151.638 C 175.699 151.792,175.766 151.917,175.766 153.007 C 175.766 154.013,175.868 154.253,176.402 154.496 C 176.752 154.655,177.169 155.072,177.328 155.422 C 177.488 155.772,177.804 156.059,178.030 156.059 C 178.257 156.059,178.555 156.355,178.692 156.717 C 178.942 157.375,179.699 157.705,180.681 157.586 C 181.032 157.544,181.326 157.784,181.581 158.322 C 182.122 159.463,182.900 160.248,183.687 160.445 C 184.062 160.539,184.598 160.909,184.880 161.267 C 185.482 162.033,187.020 162.159,187.936 161.518 C 188.475 161.140,188.516 161.161,188.678 161.899 C 188.897 162.896,189.319 163.236,190.589 163.436 C 191.151 163.524,191.897 163.818,192.246 164.089 C 193.114 164.761,194.571 164.738,194.940 164.048 C 195.319 163.340,195.859 163.376,196.914 164.181 C 197.695 164.777,198.037 164.847,200.178 164.847 C 202.385 164.847,202.619 164.795,203.196 164.181 C 203.951 163.377,204.549 163.337,205.193 164.048 C 205.483 164.369,206.013 164.581,206.525 164.581 C 207.036 164.581,207.566 164.369,207.856 164.048 C 208.121 163.755,208.611 163.515,208.945 163.515 C 210.058 163.515,210.960 162.995,211.270 162.176 C 211.486 161.603,211.688 161.427,211.978 161.558 C 213.137 162.083,214.622 161.972,215.235 161.315 C 215.571 160.955,216.145 160.569,216.511 160.457 C 217.501 160.156,217.863 159.783,218.412 158.505 C 218.868 157.439,218.968 157.361,219.672 157.516 C 220.856 157.776,224.234 154.451,224.234 153.025 C 224.234 152.125,224.327 152.005,225.370 151.558 C 226.628 151.019,227.001 150.654,227.301 149.667 C 227.413 149.301,227.787 148.737,228.133 148.415 C 228.799 147.794,229.050 145.616,228.495 145.273 C 228.039 144.991,228.199 144.735,229.025 144.423 C 229.835 144.118,230.360 143.211,230.360 142.119 C 230.360 141.795,230.599 141.325,230.892 141.074 C 231.259 140.760,231.425 140.288,231.425 139.559 C 231.425 138.773,231.288 138.427,230.892 138.216 C 230.181 137.835,230.221 137.259,231.025 136.303 C 231.622 135.594,231.691 135.276,231.691 133.227 C 231.691 131.200,231.616 130.844,231.025 130.070 C 230.220 129.014,230.191 128.595,230.892 128.158 C 231.274 127.919,231.425 127.537,231.425 126.803 C 231.425 126.120,231.248 125.622,230.892 125.300 C 230.599 125.034,230.360 124.544,230.360 124.210 C 230.360 123.093,229.850 122.217,229.033 121.933 C 228.369 121.701,228.280 121.574,228.499 121.165 C 229.010 120.209,228.814 118.550,228.117 117.945 C 227.763 117.637,227.394 117.068,227.298 116.682 C 227.044 115.663,226.422 115.082,225.247 114.766 C 224.258 114.500,224.217 114.445,224.275 113.463 C 224.332 112.497,222.643 110.253,221.859 110.253 C 221.748 110.253,221.520 109.953,221.353 109.587 C 221.102 109.036,220.864 108.921,219.965 108.921 C 218.994 108.921,218.843 108.831,218.518 108.056 C 218.069 106.984,217.137 106.115,216.196 105.893 C 215.803 105.800,215.410 105.498,215.322 105.220 C 215.111 104.557,213.505 104.251,212.474 104.678 C 212.049 104.854,211.675 104.952,211.643 104.896 C 211.611 104.840,211.401 104.436,211.178 104.000 C 210.842 103.344,210.540 103.167,209.448 102.984 C 208.720 102.862,208.031 102.595,207.917 102.390 C 207.484 101.618,205.866 101.596,205.164 102.353 C 204.450 103.123,204.003 103.068,202.932 102.078 C 201.979 101.197,197.963 101.158,197.181 102.022 M202.384 102.916 C 203.176 103.759,204.295 104.000,205.204 103.524 C 205.736 103.245,206.291 103.208,207.418 103.375 C 209.541 103.691,210.024 103.961,210.647 105.182 C 211.236 106.336,211.977 106.582,212.762 105.885 C 213.612 105.129,216.187 106.557,217.450 108.484 C 218.449 110.009,218.590 110.120,219.526 110.120 C 221.052 110.120,223.566 112.538,223.157 113.613 C 222.823 114.492,223.253 115.018,225.179 116.085 C 226.869 117.021,228.021 119.485,227.322 120.668 C 226.793 121.564,226.979 122.096,227.963 122.503 C 229.471 123.128,230.576 126.159,229.864 127.721 C 229.371 128.804,229.507 129.856,230.256 130.746 C 231.180 131.844,231.286 134.838,230.425 135.529 C 229.579 136.208,229.286 137.441,229.756 138.339 C 230.527 139.811,229.674 143.144,228.389 143.681 C 227.012 144.256,226.767 144.704,227.318 145.636 C 228.069 146.908,227.011 149.112,225.034 150.393 C 223.180 151.596,222.887 151.987,223.209 152.834 C 223.486 153.564,223.413 153.664,220.904 155.956 C 220.503 156.322,220.163 156.440,219.931 156.293 C 219.034 155.725,217.961 156.636,216.644 159.084 C 216.143 160.015,213.426 160.937,212.661 160.435 C 211.767 159.850,211.012 160.161,210.648 161.266 C 210.154 162.761,206.772 163.735,205.093 162.867 C 204.176 162.393,202.905 162.714,202.164 163.607 C 201.890 163.938,201.349 164.048,200.000 164.048 C 198.651 164.048,198.110 163.938,197.836 163.607 C 197.096 162.716,195.824 162.393,194.911 162.864 C 193.151 163.775,189.348 162.488,189.348 160.982 C 189.348 160.229,188.585 159.956,187.491 160.317 C 185.773 160.884,183.933 159.962,182.546 157.839 C 181.533 156.289,181.414 156.196,180.529 156.264 C 179.104 156.373,176.527 153.896,176.902 152.777 C 177.215 151.845,176.548 151.034,174.789 150.207 C 174.142 149.903,173.549 149.447,173.470 149.195 C 173.392 148.942,173.080 148.174,172.778 147.488 C 172.270 146.333,172.261 146.209,172.666 145.805 C 173.407 145.063,173.195 144.399,172.027 143.803 C 170.852 143.204,170.608 142.787,170.187 140.666 C 169.958 139.511,169.982 139.109,170.322 138.453 C 170.806 137.515,170.509 136.205,169.630 135.410 C 168.824 134.680,168.886 131.867,169.731 130.846 C 170.590 129.810,170.742 128.990,170.264 127.986 C 169.529 126.445,170.498 123.361,171.971 122.552 C 173.179 121.889,173.365 121.370,172.670 120.603 C 171.941 119.797,173.388 116.812,174.851 116.103 C 176.517 115.297,177.208 114.447,176.914 113.566 C 176.705 112.938,176.799 112.725,177.651 111.883 C 179.374 110.180,179.696 109.987,180.532 110.154 C 181.250 110.298,181.415 110.167,182.643 108.478 C 184.229 106.298,186.013 105.383,187.486 105.993 C 188.519 106.421,188.983 106.211,189.445 105.104 C 190.036 103.689,193.275 102.727,194.784 103.518 C 195.698 103.996,196.868 103.758,197.787 102.906 C 198.805 101.963,201.494 101.968,202.384 102.916 M199.754 108.256 C 199.551 108.906,199.323 112.332,199.169 117.044 C 199.030 121.292,198.864 125.007,198.800 125.300 C 198.680 125.846,197.233 126.838,196.958 126.563 C 196.621 126.226,196.833 125.276,197.312 124.978 C 198.569 124.192,198.586 120.573,197.339 118.802 C 197.071 118.421,196.723 117.335,196.565 116.389 C 196.355 115.129,196.099 114.502,195.609 114.048 C 195.058 113.536,194.940 113.180,194.940 112.024 C 194.940 110.428,194.350 109.290,193.884 109.987 C 193.285 110.882,193.739 114.514,194.450 114.514 C 194.573 114.514,194.674 115.151,194.674 115.930 C 194.674 117.778,195.155 120.343,195.630 121.020 C 196.041 121.607,196.150 123.835,195.768 123.835 C 195.430 123.835,195.206 123.140,195.206 122.087 C 195.206 121.348,195.086 121.152,194.553 121.018 C 194.114 120.908,193.801 120.557,193.601 119.950 C 193.437 119.452,193.158 118.955,192.982 118.844 C 192.805 118.733,192.437 118.132,192.162 117.510 C 191.888 116.887,191.574 116.378,191.464 116.378 C 191.354 116.378,191.010 115.947,190.699 115.419 C 190.387 114.892,189.896 114.399,189.607 114.323 C 189.219 114.222,189.081 113.958,189.081 113.317 C 189.081 112.297,188.544 111.696,188.063 112.177 C 187.594 112.645,187.684 113.383,188.282 113.981 C 188.575 114.274,188.815 114.797,188.815 115.143 C 188.815 115.488,189.120 116.221,189.493 116.771 C 189.867 117.321,190.242 118.121,190.328 118.549 C 190.413 118.977,190.706 119.483,190.979 119.674 C 191.251 119.865,191.552 120.430,191.647 120.929 C 191.878 122.147,192.220 122.770,192.657 122.770 C 192.871 122.770,193.062 123.148,193.126 123.702 C 193.254 124.794,192.695 125.009,192.434 123.968 C 192.342 123.602,192.167 123.302,192.044 123.302 C 191.922 123.302,191.475 122.996,191.051 122.621 C 187.981 119.907,187.079 119.086,186.465 118.442 C 186.081 118.039,185.628 117.710,185.457 117.710 C 185.287 117.710,184.952 117.410,184.712 117.044 C 184.472 116.678,184.038 116.378,183.749 116.378 C 183.459 116.378,183.222 116.213,183.222 116.011 C 183.222 115.391,182.542 114.982,182.199 115.396 C 181.866 115.796,182.268 116.378,182.876 116.378 C 183.067 116.378,183.222 116.592,183.222 116.853 C 183.222 117.113,183.822 117.955,184.554 118.723 C 185.286 119.491,185.885 120.187,185.885 120.269 C 185.885 120.352,186.515 121.058,187.284 121.839 C 189.020 123.602,189.765 124.482,189.967 125.009 C 190.053 125.233,190.428 125.493,190.801 125.587 C 191.850 125.850,191.645 126.411,190.546 126.282 C 189.993 126.218,189.614 126.027,189.614 125.812 C 189.614 125.381,188.792 124.900,188.054 124.900 C 187.763 124.900,187.185 124.616,186.771 124.269 C 186.357 123.922,185.599 123.546,185.087 123.434 C 184.574 123.322,184.001 123.012,183.814 122.744 C 183.411 122.169,181.706 121.782,181.312 122.177 C 180.892 122.597,181.287 123.443,182.095 123.852 C 182.495 124.055,183.162 124.494,183.576 124.827 C 183.990 125.160,184.619 125.506,184.974 125.595 C 185.329 125.684,185.619 125.870,185.619 126.008 C 185.619 126.146,186.043 126.436,186.561 126.652 C 187.097 126.876,187.610 127.329,187.753 127.704 C 187.952 128.228,188.190 128.362,188.920 128.362 C 189.983 128.362,190.679 128.584,190.679 128.923 C 190.679 129.304,188.357 129.198,187.958 128.799 C 187.523 128.364,184.645 127.830,182.735 127.830 C 181.978 127.830,181.358 127.729,181.358 127.606 C 181.358 126.895,177.727 126.440,176.831 127.040 C 176.134 127.506,177.273 128.096,178.868 128.096 C 180.025 128.096,180.381 128.214,180.892 128.765 C 181.346 129.255,181.973 129.511,183.233 129.721 C 184.179 129.879,185.265 130.227,185.646 130.495 C 187.416 131.741,191.084 131.726,191.756 130.471 C 192.002 130.011,193.609 129.694,193.609 130.106 C 193.609 131.906,193.113 132.020,184.021 132.325 C 179.207 132.486,176.055 132.704,175.401 132.922 L 174.371 133.264 175.801 133.625 C 176.727 133.859,179.918 134.050,184.865 134.170 C 189.064 134.271,192.546 134.414,192.602 134.487 C 194.044 136.361,193.476 137.457,191.845 135.946 C 190.573 134.766,187.336 134.711,185.798 135.843 C 185.384 136.148,184.366 136.497,183.535 136.617 C 181.652 136.891,181.143 137.090,180.829 137.677 C 180.645 138.021,180.122 138.178,178.814 138.283 C 176.901 138.436,176.232 138.789,176.792 139.348 C 177.344 139.899,180.007 139.728,181.221 139.063 C 181.927 138.677,182.746 138.482,183.664 138.482 C 185.221 138.482,187.750 137.967,187.750 137.649 C 187.750 137.333,189.518 137.069,190.309 137.267 C 191.294 137.514,190.882 137.781,189.265 137.944 C 188.095 138.061,187.870 138.173,187.799 138.669 C 187.753 138.996,187.458 139.334,187.134 139.432 C 186.813 139.529,186.310 139.829,186.015 140.098 C 185.720 140.367,185.038 140.771,184.498 140.997 C 183.959 141.222,183.422 141.571,183.304 141.772 C 183.186 141.974,182.686 142.344,182.193 142.597 C 181.700 142.849,181.236 143.284,181.163 143.565 C 181.080 143.881,180.797 144.075,180.417 144.075 C 179.454 144.075,178.961 144.355,178.961 144.902 C 178.961 145.620,180.435 145.599,180.887 144.874 C 181.107 144.522,181.508 144.341,182.068 144.341 C 182.583 144.341,183.225 144.080,183.706 143.675 C 184.142 143.309,184.741 143.009,185.038 143.009 C 185.335 143.009,185.948 142.698,186.400 142.318 C 186.861 141.930,187.698 141.563,188.306 141.481 C 189.106 141.374,189.449 141.180,189.616 140.741 C 189.764 140.352,190.125 140.104,190.660 140.026 C 191.568 139.893,191.834 140.464,190.988 140.732 C 190.719 140.818,190.149 141.324,189.723 141.858 C 189.297 142.391,188.559 143.232,188.083 143.726 C 187.607 144.221,187.217 144.741,187.217 144.882 C 187.217 145.024,187.035 145.140,186.812 145.140 C 186.589 145.140,186.271 145.438,186.105 145.802 C 185.939 146.166,185.522 146.648,185.179 146.873 C 184.835 147.098,184.554 147.446,184.554 147.645 C 184.554 147.845,184.254 148.204,183.888 148.444 C 183.522 148.684,183.222 149.117,183.222 149.407 C 183.222 149.697,183.057 149.933,182.856 149.933 C 182.306 149.933,181.752 150.700,182.071 151.019 C 182.414 151.362,183.222 151.048,183.222 150.571 C 183.222 150.367,183.377 150.200,183.566 150.200 C 183.756 150.200,184.340 149.810,184.864 149.334 C 187.470 146.970,190.287 144.418,190.816 143.941 C 191.141 143.648,191.633 143.277,191.909 143.115 C 192.184 142.954,192.449 142.557,192.497 142.234 C 192.573 141.721,193.148 141.513,193.096 142.017 C 193.085 142.124,193.076 142.514,193.076 142.885 C 193.076 143.284,192.886 143.629,192.610 143.731 C 191.977 143.964,191.753 144.342,191.748 145.186 C 191.746 145.578,191.461 146.237,191.115 146.651 C 190.769 147.065,190.397 147.685,190.289 148.030 C 190.181 148.375,189.806 149.081,189.454 149.599 C 189.103 150.117,188.815 150.823,188.815 151.169 C 188.815 151.515,188.575 152.037,188.282 152.330 C 187.714 152.899,187.568 154.050,188.028 154.335 C 188.509 154.632,189.081 153.898,189.081 152.982 C 189.081 152.290,189.202 152.083,189.643 152.016 C 189.951 151.969,190.461 151.508,190.774 150.990 C 191.088 150.473,191.585 149.649,191.877 149.159 C 192.170 148.669,192.663 147.954,192.973 147.570 C 193.282 147.185,193.622 146.594,193.728 146.256 C 193.834 145.918,194.210 145.532,194.563 145.397 C 195.028 145.221,195.207 144.948,195.210 144.414 C 195.215 143.351,195.495 142.459,195.769 142.629 C 196.150 142.864,196.040 144.926,195.622 145.388 C 195.198 145.856,194.679 148.621,194.676 150.424 C 194.674 151.175,194.487 151.818,194.141 152.258 C 193.491 153.084,193.397 155.669,193.988 156.474 C 194.493 157.162,194.940 156.103,194.940 154.217 C 194.940 153.179,195.081 152.794,195.697 152.150 C 196.275 151.545,196.496 150.996,196.633 149.830 C 196.732 148.990,197.039 147.980,197.316 147.587 C 198.565 145.811,198.642 142.746,197.466 141.631 C 196.287 140.513,196.627 139.501,197.975 140.116 C 198.899 140.537,198.865 140.294,199.056 147.959 C 199.415 162.368,200.668 162.728,201.012 148.520 L 201.198 140.848 201.864 140.333 C 203.234 139.273,204.021 140.338,202.745 141.524 C 201.674 142.518,201.678 145.666,202.753 147.643 C 203.143 148.360,203.462 149.355,203.462 149.853 C 203.462 150.881,204.056 152.195,204.618 152.410 C 204.873 152.508,205.031 153.123,205.107 154.310 C 205.257 156.669,205.924 157.457,206.407 155.847 C 206.755 154.685,206.389 152.391,205.797 152.026 C 205.638 151.928,205.424 150.726,205.320 149.356 C 205.194 147.692,204.938 146.440,204.548 145.584 C 203.968 144.312,203.880 142.610,204.394 142.610 C 204.541 142.610,204.693 142.969,204.733 143.409 C 204.876 144.965,205.062 145.406,205.577 145.406 C 205.920 145.406,206.183 145.707,206.391 146.336 C 206.560 146.848,206.855 147.357,207.047 147.468 C 207.239 147.579,207.620 148.103,207.893 148.631 C 208.809 150.408,209.895 151.858,210.409 151.993 C 210.752 152.082,210.919 152.361,210.919 152.843 C 210.919 153.719,211.525 154.611,211.944 154.353 C 212.428 154.053,212.301 152.914,211.718 152.330 C 211.418 152.031,211.185 151.443,211.185 150.986 C 211.185 150.462,210.949 149.955,210.519 149.557 C 210.128 149.195,209.854 148.646,209.854 148.226 C 209.854 147.820,209.567 147.226,209.189 146.848 C 208.817 146.476,208.451 145.724,208.358 145.138 C 208.248 144.453,207.973 143.950,207.557 143.678 C 207.125 143.395,206.924 143.011,206.924 142.471 C 206.924 141.449,207.326 141.452,207.683 142.477 C 207.836 142.916,208.121 143.276,208.316 143.276 C 208.511 143.276,208.861 143.485,209.094 143.742 C 209.906 144.632,211.471 145.939,211.727 145.939 C 211.868 145.939,211.984 146.116,211.984 146.332 C 211.984 146.548,212.308 146.938,212.704 147.197 C 213.409 147.659,214.115 148.265,215.449 149.554 C 215.817 149.909,216.217 150.200,216.338 150.200 C 216.460 150.200,216.780 150.469,217.049 150.799 C 217.433 151.269,217.610 151.329,217.866 151.077 C 218.251 150.698,217.768 149.933,217.144 149.933 C 216.943 149.933,216.778 149.728,216.778 149.477 C 216.778 149.043,216.568 148.775,214.847 147.009 C 214.444 146.596,214.115 146.170,214.115 146.064 C 214.115 145.957,213.485 145.233,212.716 144.455 C 211.947 143.676,210.972 142.562,210.550 141.979 C 210.127 141.396,209.498 140.847,209.152 140.760 C 208.287 140.543,208.358 140.079,209.254 140.084 C 210.118 140.089,210.495 140.309,210.730 140.945 C 210.840 141.242,211.182 141.411,211.673 141.411 C 212.128 141.411,212.855 141.738,213.449 142.210 C 214.002 142.650,214.753 143.009,215.119 143.009 C 215.487 143.009,216.061 143.307,216.401 143.675 C 217.179 144.514,218.495 144.581,218.911 143.803 C 219.159 143.339,219.083 143.202,218.354 142.804 C 217.890 142.551,217.174 142.071,216.764 141.737 C 216.354 141.404,215.650 141.003,215.200 140.846 C 214.749 140.689,214.381 140.446,214.381 140.307 C 214.381 140.167,213.948 139.872,213.420 139.651 C 212.891 139.430,212.397 139.016,212.323 138.730 C 212.186 138.208,211.735 138.025,210.253 137.889 C 209.814 137.849,209.514 137.696,209.587 137.550 C 209.763 137.198,212.233 137.229,212.467 137.586 C 212.751 138.018,214.982 138.482,216.773 138.482 C 217.941 138.482,218.600 138.625,219.119 138.990 C 220.098 139.679,221.670 139.910,222.814 139.533 C 224.231 139.065,223.430 138.419,221.246 138.270 C 219.878 138.176,219.477 138.038,219.041 137.508 C 218.641 137.022,218.110 136.804,216.909 136.635 C 216.030 136.512,214.839 136.133,214.264 135.794 C 212.616 134.821,209.369 134.872,208.429 135.885 C 207.214 137.194,206.062 136.773,206.963 135.349 C 207.648 134.267,207.674 134.264,216.112 134.115 C 222.616 134.001,226.819 133.537,225.566 133.073 C 224.419 132.648,222.062 132.357,219.761 132.356 C 209.410 132.353,206.658 131.925,206.658 130.321 C 206.658 129.828,208.156 129.850,208.347 130.346 C 208.864 131.693,211.948 131.835,214.239 130.617 C 214.898 130.266,216.069 129.896,216.840 129.793 C 217.892 129.654,218.419 129.419,218.948 128.852 C 219.543 128.215,219.866 128.096,220.995 128.096 C 222.940 128.096,224.015 127.655,223.318 127.144 C 222.389 126.461,218.908 126.826,218.908 127.606 C 218.908 127.729,218.362 127.830,217.694 127.830 C 215.803 127.830,212.729 128.378,212.318 128.789 C 211.912 129.195,209.587 129.309,209.587 128.923 C 209.587 128.598,210.272 128.362,211.213 128.362 C 211.797 128.362,212.060 128.198,212.242 127.719 C 212.376 127.366,212.763 126.990,213.101 126.884 C 213.439 126.778,214.054 126.408,214.468 126.062 C 214.882 125.716,215.391 125.433,215.600 125.433 C 215.808 125.433,216.248 125.163,216.578 124.834 C 216.907 124.504,217.536 124.055,217.976 123.835 C 218.415 123.615,218.893 123.166,219.038 122.836 C 219.215 122.432,219.530 122.237,220.004 122.237 C 220.391 122.237,220.860 122.052,221.048 121.826 C 221.845 120.866,220.020 120.630,219.079 121.572 C 218.859 121.791,218.381 121.971,218.015 121.971 C 217.650 121.971,217.004 122.263,216.580 122.619 C 216.157 122.976,215.458 123.354,215.029 123.459 C 214.599 123.564,213.922 123.920,213.525 124.250 C 213.127 124.580,212.330 124.930,211.753 125.027 C 211.033 125.149,210.663 125.365,210.570 125.718 C 210.481 126.059,210.204 126.232,209.745 126.232 C 209.365 126.232,208.968 126.241,208.862 126.252 C 208.755 126.263,208.625 126.143,208.573 125.985 C 208.521 125.828,208.710 125.699,208.993 125.699 C 209.303 125.699,209.989 125.089,210.715 124.168 C 211.738 122.871,214.079 120.287,216.231 118.081 C 216.532 117.773,216.778 117.292,216.778 117.012 C 216.778 116.733,217.047 116.386,217.377 116.242 C 217.706 116.097,217.976 115.799,217.976 115.579 C 217.976 114.963,217.209 115.107,216.914 115.779 C 216.770 116.109,216.443 116.378,216.188 116.378 C 215.933 116.378,215.528 116.678,215.288 117.044 C 215.048 117.410,214.731 117.710,214.582 117.710 C 214.433 117.710,213.673 118.339,212.892 119.108 C 210.900 121.070,210.151 121.749,208.860 122.764 C 208.240 123.251,207.663 123.871,207.577 124.142 C 207.491 124.412,207.270 124.634,207.085 124.634 C 206.530 124.634,206.915 123.103,207.580 122.667 C 207.944 122.429,208.241 121.896,208.336 121.313 C 208.422 120.785,208.798 119.988,209.173 119.543 C 209.547 119.098,209.854 118.491,209.854 118.194 C 209.854 117.897,210.153 117.297,210.519 116.862 C 210.924 116.381,211.185 115.739,211.185 115.223 C 211.185 114.664,211.366 114.263,211.718 114.043 C 212.443 113.590,212.465 112.117,211.746 112.117 C 211.199 112.117,210.919 112.610,210.919 113.573 C 210.919 113.958,210.724 114.236,210.395 114.323 C 210.107 114.398,209.665 114.891,209.413 115.419 C 209.162 115.946,208.861 116.378,208.744 116.378 C 208.628 116.378,208.277 116.887,207.965 117.510 C 207.652 118.132,207.184 118.881,206.925 119.174 C 206.665 119.467,206.380 119.948,206.291 120.242 C 206.203 120.536,205.859 120.896,205.528 121.041 C 205.064 121.245,204.894 121.590,204.783 122.559 C 204.609 124.066,204.350 124.416,204.111 123.465 C 203.913 122.674,204.177 120.905,204.494 120.905 C 204.811 120.905,205.326 118.376,205.326 116.820 C 205.326 115.915,205.523 115.072,205.897 114.377 C 206.554 113.155,206.731 110.489,206.192 109.948 C 205.633 109.387,205.281 110.057,205.127 111.970 C 205.022 113.277,204.865 113.801,204.521 113.985 C 203.934 114.299,203.735 114.807,203.461 116.691 C 203.341 117.521,202.990 118.542,202.682 118.959 C 201.669 120.329,201.672 124.900,202.686 124.900 C 203.046 124.900,203.474 125.889,203.305 126.330 C 203.168 126.688,203.049 126.686,202.251 126.305 C 201.120 125.766,201.116 125.739,200.957 117.044 C 200.876 112.682,200.705 109.835,200.461 108.788 L 200.087 107.190 199.754 108.256 M200.266 118.258 C 200.266 122.462,200.175 124.609,200.000 124.501 C 199.509 124.197,199.667 111.851,200.162 111.851 C 200.219 111.851,200.266 114.734,200.266 118.258 M195.987 117.361 C 195.997 117.829,195.885 118.285,195.739 118.375 C 195.572 118.478,195.480 117.961,195.491 116.993 C 195.511 115.352,195.950 115.677,195.987 117.361 M204.496 117.244 C 204.473 118.450,204.417 118.688,204.292 118.109 C 204.124 117.331,204.215 115.579,204.423 115.579 C 204.480 115.579,204.513 116.328,204.496 117.244 M191.555 118.242 C 191.632 118.535,191.586 118.842,191.453 118.924 C 191.320 119.006,191.212 118.766,191.212 118.391 C 191.212 117.575,191.363 117.509,191.555 118.242 M208.842 118.828 C 208.593 119.077,208.522 119.006,208.522 118.509 C 208.522 118.012,208.593 117.941,208.842 118.189 C 209.090 118.438,209.090 118.580,208.842 118.828 M193.147 120.706 C 193.293 121.665,193.168 122.059,192.791 121.826 C 192.475 121.631,192.464 119.840,192.779 119.840 C 192.909 119.840,193.075 120.230,193.147 120.706 M207.704 120.439 C 207.676 121.347,207.358 121.974,207.035 121.761 C 206.844 121.636,206.824 121.276,206.976 120.706 C 207.238 119.719,207.732 119.538,207.704 120.439 M203.196 121.971 C 203.196 122.703,203.076 123.302,202.929 123.302 C 202.639 123.302,202.565 121.736,202.825 121.060 C 203.099 120.347,203.196 120.585,203.196 121.971 M178.977 121.286 C 178.593 121.749,179.328 122.237,180.409 122.237 C 181.227 122.237,181.331 121.585,180.577 121.181 C 179.868 120.802,179.351 120.836,178.977 121.286 M197.337 122.104 C 197.337 122.763,197.217 123.302,197.071 123.302 C 196.924 123.302,196.804 122.763,196.804 122.104 C 196.804 121.445,196.924 120.905,197.071 120.905 C 197.217 120.905,197.337 121.445,197.337 122.104 M194.407 122.903 C 194.407 123.123,194.288 123.302,194.141 123.302 C 193.995 123.302,193.875 123.123,193.875 122.903 C 193.875 122.683,193.995 122.503,194.141 122.503 C 194.288 122.503,194.407 122.683,194.407 122.903 M185.768 124.609 C 185.686 124.742,185.379 124.787,185.086 124.711 C 184.354 124.519,184.419 124.368,185.235 124.368 C 185.610 124.368,185.850 124.476,185.768 124.609 M215.313 124.634 C 214.586 124.946,214.381 124.946,214.381 124.634 C 214.381 124.487,214.710 124.376,215.113 124.386 C 215.762 124.403,215.785 124.431,215.313 124.634 M194.627 125.788 C 194.678 126.051,194.542 126.232,194.294 126.232 C 194.047 126.232,193.875 126.004,193.875 125.677 C 193.875 125.028,194.497 125.120,194.627 125.788 M206.225 125.576 C 206.316 125.812,206.210 126.052,205.976 126.142 C 205.455 126.341,205.217 126.101,205.418 125.577 C 205.620 125.051,206.023 125.050,206.225 125.576 M188.549 126.099 C 188.388 126.419,187.191 126.302,186.818 125.930 C 186.640 125.752,186.907 125.692,187.617 125.748 C 188.214 125.795,188.623 125.949,188.549 126.099 M213.449 125.965 C 213.358 126.112,212.872 126.232,212.368 126.232 C 211.864 126.232,211.451 126.112,211.451 125.965 C 211.451 125.819,211.938 125.699,212.532 125.699 C 213.185 125.699,213.548 125.805,213.449 125.965 M196.462 127.396 C 196.307 127.868,195.206 127.934,195.206 127.471 C 195.206 127.253,195.356 127.023,195.539 126.959 C 196.027 126.789,196.576 127.049,196.462 127.396 M190.146 127.297 C 190.146 127.443,189.967 127.563,189.747 127.563 C 189.527 127.563,189.348 127.443,189.348 127.297 C 189.348 127.150,189.527 127.031,189.747 127.031 C 189.967 127.031,190.146 127.150,190.146 127.297 M193.076 127.450 C 193.076 127.698,192.895 127.833,192.632 127.783 C 191.964 127.653,191.872 127.031,192.521 127.031 C 192.848 127.031,193.076 127.203,193.076 127.450 M204.794 127.450 C 204.794 127.698,204.612 127.833,204.350 127.783 C 203.682 127.653,203.590 127.031,204.239 127.031 C 204.566 127.031,204.794 127.203,204.794 127.450 M208.123 127.430 C 208.123 127.577,207.853 127.735,207.523 127.782 C 207.111 127.840,206.924 127.730,206.924 127.430 C 206.924 127.130,207.111 127.020,207.523 127.079 C 207.853 127.125,208.123 127.284,208.123 127.430 M210.601 127.317 C 210.549 127.474,210.392 127.603,210.253 127.603 C 210.114 127.603,209.957 127.474,209.905 127.317 C 209.852 127.159,210.009 127.031,210.253 127.031 C 210.497 127.031,210.654 127.159,210.601 127.317 M202.636 128.310 C 205.666 129.479,206.482 134.710,204.018 137.174 C 201.554 139.637,196.323 138.822,195.154 135.791 C 193.093 130.446,197.290 126.249,202.636 128.310 M194.329 129.353 C 193.901 129.782,193.875 129.777,193.875 129.263 C 193.875 128.963,193.957 128.635,194.057 128.535 C 194.157 128.435,194.361 128.476,194.511 128.626 C 194.697 128.812,194.640 129.043,194.329 129.353 M206.302 128.780 C 206.539 129.396,206.015 129.804,205.612 129.317 C 205.270 128.906,205.425 128.362,205.883 128.362 C 206.025 128.362,206.214 128.550,206.302 128.780 M185.220 128.895 C 185.022 129.214,183.567 129.214,182.823 128.895 C 182.441 128.731,182.727 128.661,183.837 128.647 C 184.805 128.636,185.323 128.728,185.220 128.895 M217.710 128.895 C 217.619 129.041,217.080 129.161,216.511 129.161 C 215.943 129.161,215.403 129.041,215.313 128.895 C 215.211 128.731,215.670 128.628,216.511 128.628 C 217.352 128.628,217.811 128.731,217.710 128.895 M190.146 130.226 C 190.146 130.373,189.607 130.493,188.948 130.493 C 188.289 130.493,187.750 130.373,187.750 130.226 C 187.750 130.080,188.289 129.960,188.948 129.960 C 189.607 129.960,190.146 130.080,190.146 130.226 M212.517 130.226 C 212.517 130.373,211.910 130.493,211.169 130.493 C 210.339 130.493,209.885 130.391,209.987 130.226 C 210.077 130.080,210.683 129.960,211.334 129.960 C 211.984 129.960,212.517 130.080,212.517 130.226 M191.345 133.156 C 191.453 133.331,189.285 133.421,185.036 133.418 C 180.758 133.415,178.697 133.326,178.961 133.156 C 179.504 132.805,191.128 132.805,191.345 133.156 M221.438 133.156 C 221.755 133.292,219.275 133.391,215.313 133.399 C 210.923 133.409,208.791 133.326,209.055 133.156 C 209.549 132.836,220.695 132.836,221.438 133.156 M190.146 136.085 C 190.146 136.232,189.517 136.350,188.748 136.347 C 187.747 136.345,187.464 136.270,187.750 136.085 C 188.277 135.745,190.146 135.745,190.146 136.085 M212.517 136.085 C 212.800 136.268,212.466 136.345,211.369 136.347 C 210.405 136.350,209.884 136.251,209.987 136.085 C 210.197 135.746,211.991 135.746,212.517 136.085 M206.302 137.532 C 206.109 138.035,205.326 138.092,205.326 137.603 C 205.326 137.413,205.470 137.113,205.646 136.937 C 206.051 136.532,206.522 136.958,206.302 137.532 M194.639 137.242 C 194.965 137.634,194.783 137.949,194.230 137.949 C 194.035 137.949,193.875 137.710,193.875 137.417 C 193.875 136.802,194.210 136.725,194.639 137.242 M185.619 137.580 C 185.619 137.637,184.870 137.667,183.955 137.648 C 182.621 137.620,182.475 137.580,183.222 137.445 C 184.120 137.283,185.619 137.368,185.619 137.580 M217.843 137.579 C 217.843 137.636,217.154 137.671,216.312 137.657 C 215.280 137.639,214.991 137.571,215.427 137.449 C 216.055 137.274,217.843 137.370,217.843 137.579 M193.076 138.866 C 193.076 139.077,192.980 139.309,192.863 139.381 C 192.523 139.591,191.925 139.103,192.125 138.778 C 192.390 138.351,193.076 138.414,193.076 138.866 M196.269 138.878 C 196.536 139.200,196.514 139.307,196.151 139.446 C 195.626 139.648,195.066 139.190,195.325 138.772 C 195.571 138.374,195.879 138.409,196.269 138.878 M204.794 138.866 C 204.794 139.386,204.277 139.670,203.941 139.334 C 203.791 139.184,203.749 138.931,203.847 138.772 C 204.108 138.349,204.794 138.417,204.794 138.866 M207.962 138.849 C 208.202 139.137,208.152 139.246,207.729 139.357 C 207.150 139.508,206.790 139.181,207.057 138.748 C 207.285 138.380,207.603 138.415,207.962 138.849 M210.786 139.015 C 210.876 139.161,210.696 139.281,210.386 139.281 C 210.076 139.281,209.896 139.161,209.987 139.015 C 210.077 138.868,210.257 138.748,210.386 138.748 C 210.515 138.748,210.695 138.868,210.786 139.015 M188.211 140.691 C 187.891 140.809,187.327 140.822,186.957 140.720 C 186.320 140.543,186.341 140.516,187.350 140.212 C 188.524 139.858,189.298 140.289,188.211 140.691 M194.674 140.613 C 194.674 140.908,194.496 141.145,194.274 141.145 C 194.052 141.145,193.875 140.908,193.875 140.613 C 193.875 140.317,194.052 140.080,194.274 140.080 C 194.496 140.080,194.674 140.317,194.674 140.613 M206.225 140.292 C 206.481 140.707,205.908 141.300,205.574 140.966 C 205.404 140.797,205.347 140.529,205.445 140.369 C 205.655 140.029,206.039 139.991,206.225 140.292 M213.277 140.317 C 213.500 140.458,213.536 140.609,213.371 140.711 C 213.014 140.932,211.451 140.608,211.451 140.313 C 211.451 140.014,212.804 140.017,213.277 140.317 M185.672 141.997 C 185.424 142.246,185.282 142.246,185.033 141.997 C 184.785 141.749,184.856 141.678,185.353 141.678 C 185.850 141.678,185.921 141.749,185.672 141.997 M200.262 148.136 C 200.260 152.404,200.171 154.458,200.000 154.194 C 199.712 153.748,199.628 142.138,199.911 141.855 C 200.009 141.758,200.129 141.678,200.178 141.678 C 200.226 141.678,200.264 144.584,200.262 148.136 M215.180 141.944 C 214.663 142.278,214.381 142.278,214.381 141.944 C 214.381 141.798,214.650 141.680,214.980 141.682 C 215.465 141.685,215.503 141.735,215.180 141.944 M190.146 143.231 C 190.146 143.578,189.830 143.809,189.572 143.649 C 189.297 143.479,189.534 143.009,189.896 143.009 C 190.034 143.009,190.146 143.109,190.146 143.231 M194.447 143.409 C 194.447 143.548,194.319 143.705,194.161 143.757 C 194.004 143.810,193.875 143.653,193.875 143.409 C 193.875 143.165,194.004 143.008,194.161 143.060 C 194.319 143.113,194.447 143.270,194.447 143.409 M197.337 144.357 C 197.337 145.187,197.235 145.641,197.071 145.539 C 196.607 145.253,196.764 143.009,197.248 143.009 C 197.297 143.009,197.337 143.616,197.337 144.357 M203.196 144.357 C 203.196 145.187,203.094 145.641,202.929 145.539 C 202.466 145.253,202.623 143.009,203.107 143.009 C 203.156 143.009,203.196 143.616,203.196 144.357 M206.125 143.595 C 206.125 144.025,206.046 144.102,205.829 143.885 C 205.666 143.722,205.613 143.458,205.711 143.299 C 205.987 142.853,206.125 142.952,206.125 143.595 M219.300 144.353 C 219.040 144.774,219.693 145.406,220.390 145.406 C 221.223 145.406,221.499 144.875,220.895 144.434 C 220.310 144.005,219.539 143.966,219.300 144.353 M193.192 145.340 C 192.926 146.554,192.823 146.778,192.597 146.638 C 192.228 146.410,192.565 144.607,192.977 144.607 C 193.248 144.607,193.308 144.811,193.192 145.340 M207.614 145.272 C 207.840 146.173,207.532 147.020,207.180 146.464 C 206.851 145.943,206.855 144.607,207.185 144.607 C 207.329 144.607,207.522 144.907,207.614 145.272 M191.740 147.736 C 191.728 148.320,191.220 148.708,191.216 148.136 C 191.214 147.806,191.332 147.537,191.478 147.537 C 191.625 147.537,191.743 147.626,191.740 147.736 M204.454 150.000 C 204.395 150.476,204.346 150.087,204.346 149.134 C 204.346 148.182,204.395 147.793,204.454 148.269 C 204.513 148.745,204.513 149.524,204.454 150.000 M195.987 149.084 C 195.947 150.595,195.511 150.920,195.491 149.452 C 195.480 148.573,195.573 148.100,195.739 148.202 C 195.885 148.293,195.997 148.689,195.987 149.084 " stroke="none" fill="#5050a4" fill-rule="evenodd"></path></g></svg>